<svg width="191" height="38" viewBox="0 0 191 38" fill="none" xmlns="http://www.w3.org/2000/svg">
<g clip-path="url(#clip0_55_549)">
<path d="M0.0676272 37.7323L37.0597 37.7323L37.0597 0.909668L0.067627 0.909668L0.0676271 19.3196L0.0676272 37.7323ZM18.5623 0.909668L37.0597 19.3196L18.5623 37.7323L0.0676271 19.3196L18.5623 0.909668Z" fill="#00CD69"/>
<path d="M53.831 9.65102L53.831 12.7053L57.6669 12.7053L51.1487 28.5247L55.9163 28.5247L57.3708 24.6378L65.5059 24.6378L66.9857 28.5247L71.9172 28.5247L64.1332 9.65102L53.831 9.65102ZM190.743 28.4836L190.743 25.6305L188.746 25.6305L185.409 20.8578L189.795 14.664L185.469 14.664L181.942 19.704L180.022 19.704L180.022 9.03467L175.687 9.03467L175.687 28.5247L180.022 28.5247L180.022 22.7887L181.972 22.7887L185.795 28.5247L185.921 28.5247L190.743 28.5247L190.771 28.5247L190.743 28.4836ZM166.853 14.3421C165.919 14.3258 164.995 14.5314 164.156 14.9418C163.318 15.3522 162.589 15.9552 162.031 16.7012L161.601 14.664L155.135 14.664L155.135 17.5605L158.017 17.5605L158.017 28.5247L162.355 28.5247L162.355 18.8721C162.974 18.2039 163.971 17.8546 165.048 17.8546C166.798 17.8546 167.788 18.7114 167.788 20.536L167.788 28.5247L172.123 28.5247L172.123 19.3033C172.123 16.0574 169.862 14.3421 166.845 14.3421L166.853 14.3421ZM153.143 25.0389L153.143 19.7585C153.143 16.4068 150.557 14.3418 146.384 14.3418C143.797 14.3418 141.939 14.9037 140.564 15.7356L140.564 19.1151C142.061 18.0865 143.836 17.535 145.655 17.5328C147.573 17.5328 148.943 18.2558 148.943 20.1326L148.943 20.4923C147.941 20.2304 146.909 20.1011 145.874 20.1074C142.479 20.1074 139.383 21.4468 139.383 24.5289C139.383 27.0517 141.644 28.8462 144.662 28.8462C147.038 28.8462 148.312 28.028 149.096 27.008C149.54 28.2462 150.91 28.8462 152.283 28.8462C153.177 28.8821 154.066 28.6948 154.869 28.3006L154.869 25.8164C154.642 25.8831 154.407 25.9197 154.17 25.9253C153.603 25.9253 153.146 25.6827 153.146 25.0389L153.143 25.0389ZM146.008 25.9253C144.608 25.9253 143.718 25.2819 143.718 24.3163C143.718 23.0558 145.172 22.625 146.457 22.625C147.292 22.625 148.122 22.7413 148.923 22.9717L148.923 24.6078C148.566 25.0334 148.116 25.3726 147.608 25.6001C147.1 25.8271 146.546 25.9368 145.989 25.9197L146.008 25.9253ZM130.922 14.3418C130.126 14.3181 129.336 14.4814 128.615 14.8177C127.895 15.1548 127.263 15.6563 126.774 16.2812L126.774 9.03467L122.439 9.03467L122.439 28.5247L126.587 28.5247L126.587 26.6479C127.269 27.7169 128.7 28.8462 130.922 28.8462C134.53 28.8462 137.361 26.1649 137.361 21.6079C137.361 17.0501 134.53 14.3418 130.922 14.3418ZM129.763 25.4697C128.655 25.4815 127.584 25.0682 126.774 24.3163L126.774 18.8888C127.578 18.1239 128.651 17.7028 129.763 17.7157C131.758 17.7157 133.023 19.2429 133.023 21.6024C133.023 23.9614 131.758 25.4641 129.763 25.4641L129.763 25.4697ZM112.465 14.3418C107.969 14.3418 104.657 17.2383 104.657 21.6079C104.657 25.9771 107.969 28.8462 112.465 28.8462C116.91 28.8462 120.25 25.9771 120.25 21.6079C120.25 17.2383 116.91 14.3418 112.465 14.3418ZM112.465 25.4697C110.392 25.4697 108.991 23.8607 108.991 21.6079C108.991 19.3551 110.392 17.7157 112.465 17.7157C114.54 17.7157 115.916 19.3225 115.916 21.6024C115.916 23.8825 114.513 25.4641 112.465 25.4641L112.465 25.4697ZM97.4615 17.7728L96.7877 14.664L90.3239 14.664L90.3239 17.5605L93.2064 17.5605L93.2064 28.5247L97.5409 28.5247L97.5409 19.9989C98.1604 19.0058 99.3741 18.2284 101.61 18.2284C102.182 18.2321 102.751 18.3047 103.306 18.4439L103.306 14.5847C102.921 14.431 102.509 14.3577 102.095 14.3692C99.3192 14.3692 97.8125 16.006 97.4615 17.7728ZM83.7788 16.6005C83.1293 15.5337 81.6689 14.3418 79.3344 14.3418C75.7259 14.3418 72.8981 16.9168 72.8981 21.3405C72.8981 25.7042 75.7259 28.284 79.3344 28.284C81.4937 28.284 82.8964 27.2643 83.617 26.266L83.617 27.5347C83.617 30.0819 81.5699 30.9684 79.4687 30.9684C77.5858 30.982 75.7438 30.4205 74.1917 29.3588L74.1917 32.7629C75.6438 33.6219 77.5561 34.1564 80.1703 34.1564C84.5539 34.1564 87.9272 31.9334 87.9272 27.6106L87.9272 14.664L83.7788 14.664L83.7788 16.6005ZM80.4904 25.0389C78.5234 25.0389 77.2298 23.5632 77.2298 21.3405C77.2051 19.0607 78.5234 17.6394 80.4904 17.6394C81.6504 17.6194 82.7719 18.0535 83.614 18.8477L83.614 23.8059C82.7761 24.6096 81.654 25.0522 80.4904 25.0389ZM58.6805 21.2067L61.3984 13.9658L64.1744 21.2067L58.6805 21.2067Z" fill="black"/>
</g>
<defs>
<clipPath id="clip0_55_549">
<rect width="190.895" height="36.9474" fill="white" transform="translate(0.067627 0.909668)"/>
</clipPath>
</defs>
</svg>
