<?xml version="1.0" encoding="utf-8"?>
<!-- Generator: Adobe Illustrator 25.0.0, SVG Export Plug-In . SVG Version: 6.00 Build 0)  -->
<svg version="1.1" id="Layer_1" xmlns="http://www.w3.org/2000/svg" xmlns:xlink="http://www.w3.org/1999/xlink" x="0px" y="0px"
	 viewBox="0 0 1036 1153.8" style="enable-background:new 0 0 1036 1153.8;" xml:space="preserve">
<style type="text/css">
	.st0{fill:none;stroke:#FAFAFA;stroke-width:3;stroke-miterlimit:4;}
	.st1{fill:#F0F0F0;}
	.st2{fill:#F5F5F5;}
	.st3{fill:#EDEDED;}
	.st4{fill:#2FCA96;fill-opacity:0.6;}
	.st5{fill:#FAFAFA;}
	.st6{fill:none;stroke:#2FCA96;stroke-opacity:0.3;}
</style>
<circle class="st0" cx="647" cy="646" r="498.5"/>
<circle class="st0" cx="647.3" cy="645.3" r="378"/>
<circle class="st0" cx="647.3" cy="645.3" r="267"/>
<circle class="st0" cx="647" cy="646" r="187.5"/>
<circle class="st1" cx="528.1" cy="500.9" r="20"/>
<circle class="st2" cx="320.5" cy="268.4" r="10.5"/>
<circle class="st2" cx="411.3" cy="1088.3" r="10.5"/>
<circle class="st3" cx="983.3" cy="473" r="20"/>
<circle class="st2" cx="983.6" cy="472.3" r="10.5"/>
<circle class="st2" cx="528.4" cy="500.3" r="10.5"/>
<circle class="st2" cx="674.1" cy="268.7" r="10.5"/>
<circle class="st2" cx="844.4" cy="826.7" r="10.5"/>
<circle class="st2" cx="770.3" cy="162.2" r="10.5"/>
<path class="st4" d="M186.1,730.4c0,11.8,9.6,21.4,21.4,21.4s21.4-9.6,21.4-21.4c0-11.8-9.6-21.4-21.4-21.4S186.1,718.6,186.1,730.4
	z M225.1,730.4c0,9.7-7.8,17.5-17.5,17.5s-17.5-7.9-17.5-17.5s7.9-17.5,17.5-17.5S225.1,720.8,225.1,730.4z"/>
<circle class="st3" cx="647.5" cy="645.5" r="125.5"/>
<circle class="st2" cx="647.5" cy="645.5" r="91.5"/>
<circle class="st5" cx="646.7" cy="646.2" r="52.2"/>
<path class="st6" d="M948,277.1L543.1,41l222.5,652.8 M948,277.1L437.3,83.7l75.7,362.1L205.9,737L111.2,68.8L27,150.6l738.7,543.2
	 M948,277.1L765.6,693.8"/>
<path class="st4" d="M920.2,278.4c0,15.1,12.3,27.4,27.4,27.4s27.4-12.3,27.4-27.4c0-15.1-12.3-27.4-27.4-27.4
	S920.2,263.3,920.2,278.4z M970,278.4c0,12.4-10,22.4-22.4,22.4c-12.4,0-22.4-10-22.4-22.4c0-12.4,10-22.4,22.4-22.4
	C960,256,970,266,970,278.4z"/>
<path class="st4" d="M420.1,85.4c0,11.8,9.6,21.4,21.4,21.4S463,97.3,463,85.4S453.4,64,441.5,64S420.1,73.6,420.1,85.4z
	 M459.1,85.4c0,9.7-7.9,17.5-17.5,17.5c-9.7,0-17.5-7.8-17.5-17.5c0-9.7,7.8-17.5,17.5-17.5C451.2,67.9,459.1,75.8,459.1,85.4z"/>
<path class="st4" d="M743.1,691.4c0,11.8,9.6,21.4,21.4,21.4s21.4-9.6,21.4-21.4c0-11.8-9.6-21.4-21.4-21.4S743.1,679.6,743.1,691.4
	z M782.1,691.4c0,9.7-7.9,17.5-17.5,17.5s-17.5-7.9-17.5-17.5s7.9-17.5,17.5-17.5S782.1,681.8,782.1,691.4z"/>
<path class="st4" d="M78.2,72.4c0,15.1,12.3,27.4,27.4,27.4c15.1,0,27.4-12.3,27.4-27.4c0-15.1-12.3-27.4-27.4-27.4
	C90.5,45,78.2,57.3,78.2,72.4z M129.3,72.4c0,13.1-10.6,23.7-23.7,23.7C92.5,96,82,85.4,82,72.4c0-13.1,10.6-23.7,23.7-23.7
	C118.7,48.7,129.3,59.3,129.3,72.4z"/>
</svg>
