<svg width="543" height="441" viewBox="0 0 543 441" fill="none" xmlns="http://www.w3.org/2000/svg">
<path fill-rule="evenodd" clip-rule="evenodd" d="M398.801 298.161C398.784 297.669 398.381 297.281 397.89 297.281H396.85C396.506 297.281 396.19 297.475 396.035 297.784L393.686 302.542L391.269 297.765C391.111 297.467 390.801 297.281 390.463 297.281H389.415C388.922 297.281 388.518 297.673 388.504 298.167L388.26 306.777C388.245 307.29 388.658 307.715 389.172 307.715H389.204C389.699 307.715 390.104 307.319 390.116 306.823L390.228 302.025C390.243 301.507 390.258 300.576 390.243 300.311H390.272C390.45 300.783 390.849 301.552 391.1 302.054L392.584 304.763C392.945 305.424 393.893 305.43 394.263 304.774L395.8 301.803C396.051 301.316 396.45 300.473 396.627 300.059H396.657C396.657 300.547 396.686 301.419 396.701 302.04L396.838 306.828C396.852 307.322 397.257 307.715 397.75 307.715H398.194C398.711 307.715 399.124 307.286 399.106 306.77L398.801 298.161Z" fill="white"/>
<path fill-rule="evenodd" clip-rule="evenodd" d="M405.546 307.995C402.162 307.995 400.329 305.409 400.329 302.187C400.329 299.025 402.619 297 405.693 297C408.826 297 410.999 298.788 410.999 302.039C410.999 305.335 408.93 307.995 405.546 307.995ZM405.664 298.463C403.491 298.463 402.782 300.444 402.782 302.275C402.782 304.094 403.447 306.532 405.693 306.532C407.866 306.532 408.546 303.99 408.546 302.261C408.546 300.488 407.777 298.463 405.664 298.463Z" fill="white"/>
<path fill-rule="evenodd" clip-rule="evenodd" d="M385.488 297.267H384.923C384.424 297.267 384.02 297.672 384.02 298.171V303.552C384.02 305.12 383.281 305.976 381.873 306.049C380.465 305.976 379.727 305.12 379.727 303.552V298.171C379.727 297.672 379.322 297.267 378.823 297.267H378.259C377.759 297.267 377.354 297.672 377.354 298.171V303.552C377.354 304.116 377.417 304.685 377.579 305.227C377.717 305.691 377.928 306.134 378.225 306.517C378.503 306.876 378.852 307.174 379.247 307.396C379.665 307.63 380.123 307.811 380.595 307.879C381.291 307.98 381.663 307.964 382.062 307.962C382.83 307.957 383.347 307.901 384.075 307.618C384.119 307.601 384.162 307.583 384.205 307.565C384.624 307.383 385.005 307.12 385.318 306.787C385.643 306.441 385.887 306.027 386.056 305.584C386.253 305.068 386.349 304.519 386.381 303.969C386.388 303.83 386.392 303.691 386.392 303.552V298.171C386.392 297.672 385.987 297.267 385.488 297.267Z" fill="white"/>
<path d="M364.99 301.286C364.524 303.379 365.534 306.932 367.505 308.148C367.541 308.169 367.606 308.205 367.56 308.282C366.31 308.036 365.107 306.379 364.52 304.077C364.399 304.104 364.352 304.183 364.305 304.262C363.87 304.973 363.937 305.713 364.278 306.409C365.017 307.913 366.194 308.704 367.711 308.869C368.117 308.914 368.529 308.92 368.922 308.744C369.041 308.691 369.189 308.628 369.202 308.483C369.221 308.275 369.02 308.328 368.919 308.291C367.971 307.953 367.286 307.272 366.81 306.313C366.213 305.11 365.77 303.426 365.781 302.068C365.791 300.787 365.87 300.097 366.26 299.437C365.643 299.862 365.16 300.518 364.99 301.286Z" fill="white"/>
<path d="M372.578 297.922C373.064 297.903 373.058 298.362 372.965 300.944V301.3C371.73 301.299 369.605 301.292 368.451 301.289V301.286C368.451 299.095 368.82 298.114 368.993 297.51C368.425 297.596 367.569 297.859 367.1 298.845C366.513 300.075 366.385 301.931 366.611 303.417C366.822 304.811 367.552 307.305 369.275 307.877C369.392 307.916 369.496 307.792 369.434 307.685C369.116 307.147 368.513 305.756 368.439 302.886C369.416 302.903 372.046 302.944 372.965 302.938V303.181V306.883C372.965 307.3 373.303 307.639 373.72 307.639H374.596C375.012 307.639 375.351 307.3 375.351 306.883V299.318C375.409 297.961 374.547 297.256 373.732 297.255C373.277 297.255 372.837 297.474 372.578 297.922Z" fill="white"/>
<g filter="url(#filter0_d_55_830)">
<path d="M401.16 224.91C404.48 229.21 404.48 234.8 401.16 239.1" stroke="#B6B6B6" stroke-width="1.5" stroke-linecap="round" stroke-linejoin="round"/>
<path d="M404.64 222C409.32 228.06 409.32 235.94 404.64 242" stroke="#B6B6B6" stroke-width="1.5" stroke-linecap="round" stroke-linejoin="round"/>
<path d="M397.51 226.79C399.95 229.94 399.95 234.05 397.51 237.2" stroke="#B6B6B6" stroke-width="1.5" stroke-linecap="round" stroke-linejoin="round"/>
<path d="M393.85 229.4C395.07 230.98 395.07 233.03 393.85 234.61" stroke="#B6B6B6" stroke-width="1.5" stroke-linecap="round" stroke-linejoin="round"/>
</g>
<g filter="url(#filter1_f_55_830)">
<ellipse cx="411" cy="132.5" rx="101" ry="101.5" fill="url(#paint0_radial_55_830)" fill-opacity="0.6"/>
</g>
<g filter="url(#filter2_f_55_830)">
<ellipse cx="140" cy="298.5" rx="100" ry="102.5" fill="url(#paint1_radial_55_830)" fill-opacity="0.6"/>
</g>
<g filter="url(#filter3_bd_55_830)">
<rect x="135" y="141" width="306" height="192" rx="22" fill="url(#paint2_linear_55_830)" shape-rendering="crispEdges"/>
<rect x="135.65" y="141.65" width="304.7" height="190.7" rx="21.35" stroke="url(#paint3_linear_55_830)" stroke-opacity="0.63" stroke-width="1.3" shape-rendering="crispEdges"/>
</g>
<g filter="url(#filter4_d_55_830)">
<path d="M165 308V307.472H167.013V300.85H165V300.322H169.686V300.85H167.673V307.472H169.686V308H165ZM180.083 308L177.707 300.322H178.411L180.523 307.318H180.567L182.69 300.322H183.361L180.985 308H180.083ZM195.904 308L195.178 305.657H192.274L191.537 308H190.855L193.297 300.322H194.166L196.597 308H195.904ZM193.759 301.026H193.682L192.428 305.085H195.013L193.759 301.026ZM205.234 301.169H205.179V308H204.574V300.322H205.509L208.6 307.109H208.655V300.322H209.26V308H208.325L205.234 301.169ZM224.361 308V307.472H226.374V300.85H224.361V300.322H229.047V300.85H227.034V307.472H229.047V308H224.361ZM239.445 308L237.069 300.322H237.773L239.885 307.318H239.929L242.052 300.322H242.723L240.347 308H239.445ZM255.265 308L254.539 305.657H251.635L250.898 308H250.216L252.658 300.322H253.527L255.958 308H255.265ZM253.12 301.026H253.043L251.789 305.085H254.374L253.12 301.026ZM264.596 301.169H264.541V308H263.936V300.322H264.871L267.962 307.109H268.017V300.322H268.622V308H267.687L264.596 301.169ZM279.47 308.132C278.583 308.132 277.923 307.802 277.49 307.142C277.065 306.475 276.852 305.481 276.852 304.161C276.852 302.841 277.065 301.851 277.49 301.191C277.923 300.524 278.583 300.19 279.47 300.19C280.357 300.19 281.014 300.524 281.439 301.191C281.872 301.851 282.088 302.841 282.088 304.161C282.088 305.481 281.872 306.475 281.439 307.142C281.014 307.802 280.357 308.132 279.47 308.132ZM279.47 307.56C280.13 307.56 280.614 307.311 280.922 306.812C281.23 306.306 281.384 305.595 281.384 304.678V303.644C281.384 302.735 281.23 302.027 280.922 301.521C280.614 301.015 280.13 300.762 279.47 300.762C278.81 300.762 278.326 301.015 278.018 301.521C277.71 302.027 277.556 302.735 277.556 303.644V304.678C277.556 305.595 277.71 306.306 278.018 306.812C278.326 307.311 278.81 307.56 279.47 307.56ZM292.21 308L289.834 300.322H290.538L292.65 307.318H292.694L294.817 300.322H295.488L293.112 308H292.21Z" fill="#C5C5C5" fill-opacity="0.8" shape-rendering="crispEdges"/>
<path d="M165 308H164V309H165V308ZM165 307.472V306.472H164V307.472H165ZM167.013 307.472V308.472H168.013V307.472H167.013ZM167.013 300.85H168.013V299.85H167.013V300.85ZM165 300.85H164V301.85H165V300.85ZM165 300.322V299.322H164V300.322H165ZM169.686 300.322H170.686V299.322H169.686V300.322ZM169.686 300.85V301.85H170.686V300.85H169.686ZM167.673 300.85V299.85H166.673V300.85H167.673ZM167.673 307.472H166.673V308.472H167.673V307.472ZM169.686 307.472H170.686V306.472H169.686V307.472ZM169.686 308V309H170.686V308H169.686ZM166 308V307.472H164V308H166ZM165 308.472H167.013V306.472H165V308.472ZM168.013 307.472V300.85H166.013V307.472H168.013ZM167.013 299.85H165V301.85H167.013V299.85ZM166 300.85V300.322H164V300.85H166ZM165 301.322H169.686V299.322H165V301.322ZM168.686 300.322V300.85H170.686V300.322H168.686ZM169.686 299.85H167.673V301.85H169.686V299.85ZM166.673 300.85V307.472H168.673V300.85H166.673ZM167.673 308.472H169.686V306.472H167.673V308.472ZM168.686 307.472V308H170.686V307.472H168.686ZM169.686 307H165V309H169.686V307ZM180.083 308L179.128 308.296L179.346 309H180.083V308ZM177.707 300.322V299.322H176.351L176.752 300.618L177.707 300.322ZM178.411 300.322L179.369 300.033L179.154 299.322H178.411V300.322ZM180.523 307.318L179.566 307.607L179.781 308.318H180.523V307.318ZM180.567 307.318V308.318H181.309L181.524 307.608L180.567 307.318ZM182.69 300.322V299.322H181.949L181.733 300.032L182.69 300.322ZM183.361 300.322L184.317 300.618L184.718 299.322H183.361V300.322ZM180.985 308V309H181.723L181.941 308.296L180.985 308ZM181.039 307.704L178.663 300.026L176.752 300.618L179.128 308.296L181.039 307.704ZM177.707 301.322H178.411V299.322H177.707V301.322ZM177.454 300.611L179.566 307.607L181.481 307.029L179.369 300.033L177.454 300.611ZM180.523 308.318H180.567V306.318H180.523V308.318ZM181.524 307.608L183.647 300.612L181.733 300.032L179.61 307.028L181.524 307.608ZM182.69 301.322H183.361V299.322H182.69V301.322ZM182.406 300.026L180.03 307.704L181.941 308.296L184.317 300.618L182.406 300.026ZM180.985 307H180.083V309H180.985V307ZM195.904 308L194.949 308.296L195.167 309H195.904V308ZM195.178 305.657L196.133 305.361L195.915 304.657H195.178V305.657ZM192.274 305.657V304.657H191.54L191.32 305.357L192.274 305.657ZM191.537 308V309H192.271L192.491 308.3L191.537 308ZM190.855 308L189.902 307.697L189.487 309H190.855V308ZM193.297 300.322V299.322H192.565L192.344 300.019L193.297 300.322ZM194.166 300.322L195.119 300.02L194.898 299.322H194.166V300.322ZM196.597 308V309H197.962L197.55 307.698L196.597 308ZM193.759 301.026L194.714 300.731L194.496 300.026H193.759V301.026ZM193.682 301.026V300.026H192.944L192.726 300.731L193.682 301.026ZM192.428 305.085L191.472 304.79L191.072 306.085H192.428V305.085ZM195.013 305.085V306.085H196.368L195.968 304.79L195.013 305.085ZM196.859 307.704L196.133 305.361L194.223 305.953L194.949 308.296L196.859 307.704ZM195.178 304.657H192.274V306.657H195.178V304.657ZM191.32 305.357L190.583 307.7L192.491 308.3L193.228 305.957L191.32 305.357ZM191.537 307H190.855V309H191.537V307ZM191.808 308.303L194.25 300.625L192.344 300.019L189.902 307.697L191.808 308.303ZM193.297 301.322H194.166V299.322H193.297V301.322ZM193.212 300.624L195.643 308.302L197.55 307.698L195.119 300.02L193.212 300.624ZM196.597 307H195.904V309H196.597V307ZM193.759 300.026H193.682V302.026H193.759V300.026ZM192.726 300.731L191.472 304.79L193.383 305.38L194.637 301.321L192.726 300.731ZM192.428 306.085H195.013V304.085H192.428V306.085ZM195.968 304.79L194.714 300.731L192.803 301.321L194.057 305.38L195.968 304.79ZM205.234 301.169L206.145 300.757L205.879 300.169H205.234V301.169ZM205.179 301.169V300.169H204.179V301.169H205.179ZM205.179 308V309H206.179V308H205.179ZM204.574 308H203.574V309H204.574V308ZM204.574 300.322V299.322H203.574V300.322H204.574ZM205.509 300.322L206.419 299.908L206.153 299.322H205.509V300.322ZM208.6 307.109L207.69 307.523L207.957 308.109H208.6V307.109ZM208.655 307.109V308.109H209.655V307.109H208.655ZM208.655 300.322V299.322H207.655V300.322H208.655ZM209.26 300.322H210.26V299.322H209.26V300.322ZM209.26 308V309H210.26V308H209.26ZM208.325 308L207.414 308.412L207.68 309H208.325V308ZM205.234 300.169H205.179V302.169H205.234V300.169ZM204.179 301.169V308H206.179V301.169H204.179ZM205.179 307H204.574V309H205.179V307ZM205.574 308V300.322H203.574V308H205.574ZM204.574 301.322H205.509V299.322H204.574V301.322ZM204.599 300.736L207.69 307.523L209.51 306.695L206.419 299.908L204.599 300.736ZM208.6 308.109H208.655V306.109H208.6V308.109ZM209.655 307.109V300.322H207.655V307.109H209.655ZM208.655 301.322H209.26V299.322H208.655V301.322ZM208.26 300.322V308H210.26V300.322H208.26ZM209.26 307H208.325V309H209.26V307ZM209.236 307.588L206.145 300.757L204.323 301.581L207.414 308.412L209.236 307.588ZM224.361 308H223.361V309H224.361V308ZM224.361 307.472V306.472H223.361V307.472H224.361ZM226.374 307.472V308.472H227.374V307.472H226.374ZM226.374 300.85H227.374V299.85H226.374V300.85ZM224.361 300.85H223.361V301.85H224.361V300.85ZM224.361 300.322V299.322H223.361V300.322H224.361ZM229.047 300.322H230.047V299.322H229.047V300.322ZM229.047 300.85V301.85H230.047V300.85H229.047ZM227.034 300.85V299.85H226.034V300.85H227.034ZM227.034 307.472H226.034V308.472H227.034V307.472ZM229.047 307.472H230.047V306.472H229.047V307.472ZM229.047 308V309H230.047V308H229.047ZM225.361 308V307.472H223.361V308H225.361ZM224.361 308.472H226.374V306.472H224.361V308.472ZM227.374 307.472V300.85H225.374V307.472H227.374ZM226.374 299.85H224.361V301.85H226.374V299.85ZM225.361 300.85V300.322H223.361V300.85H225.361ZM224.361 301.322H229.047V299.322H224.361V301.322ZM228.047 300.322V300.85H230.047V300.322H228.047ZM229.047 299.85H227.034V301.85H229.047V299.85ZM226.034 300.85V307.472H228.034V300.85H226.034ZM227.034 308.472H229.047V306.472H227.034V308.472ZM228.047 307.472V308H230.047V307.472H228.047ZM229.047 307H224.361V309H229.047V307ZM239.445 308L238.489 308.296L238.707 309H239.445V308ZM237.069 300.322V299.322H235.712L236.113 300.618L237.069 300.322ZM237.773 300.322L238.73 300.033L238.515 299.322H237.773V300.322ZM239.885 307.318L238.927 307.607L239.142 308.318H239.885V307.318ZM239.929 307.318V308.318H240.67L240.886 307.608L239.929 307.318ZM242.052 300.322V299.322H241.31L241.095 300.032L242.052 300.322ZM242.723 300.322L243.678 300.618L244.079 299.322H242.723V300.322ZM240.347 308V309H241.084L241.302 308.296L240.347 308ZM240.4 307.704L238.024 300.026L236.113 300.618L238.489 308.296L240.4 307.704ZM237.069 301.322H237.773V299.322H237.069V301.322ZM236.815 300.611L238.927 307.607L240.842 307.029L238.73 300.033L236.815 300.611ZM239.885 308.318H239.929V306.318H239.885V308.318ZM240.886 307.608L243.009 300.612L241.095 300.032L238.972 307.028L240.886 307.608ZM242.052 301.322H242.723V299.322H242.052V301.322ZM241.767 300.026L239.391 307.704L241.302 308.296L243.678 300.618L241.767 300.026ZM240.347 307H239.445V309H240.347V307ZM255.265 308L254.31 308.296L254.528 309H255.265V308ZM254.539 305.657L255.494 305.361L255.276 304.657H254.539V305.657ZM251.635 305.657V304.657H250.901L250.681 305.357L251.635 305.657ZM250.898 308V309H251.632L251.852 308.3L250.898 308ZM250.216 308L249.263 307.697L248.849 309H250.216V308ZM252.658 300.322V299.322H251.927L251.705 300.019L252.658 300.322ZM253.527 300.322L254.48 300.02L254.259 299.322H253.527V300.322ZM255.958 308V309H257.324L256.911 307.698L255.958 308ZM253.12 301.026L254.076 300.731L253.858 300.026H253.12V301.026ZM253.043 301.026V300.026H252.305L252.088 300.731L253.043 301.026ZM251.789 305.085L250.834 304.79L250.434 306.085H251.789V305.085ZM254.374 305.085V306.085H255.73L255.33 304.79L254.374 305.085ZM256.22 307.704L255.494 305.361L253.584 305.953L254.31 308.296L256.22 307.704ZM254.539 304.657H251.635V306.657H254.539V304.657ZM250.681 305.357L249.944 307.7L251.852 308.3L252.589 305.957L250.681 305.357ZM250.898 307H250.216V309H250.898V307ZM251.169 308.303L253.611 300.625L251.705 300.019L249.263 307.697L251.169 308.303ZM252.658 301.322H253.527V299.322H252.658V301.322ZM252.574 300.624L255.005 308.302L256.911 307.698L254.48 300.02L252.574 300.624ZM255.958 307H255.265V309H255.958V307ZM253.12 300.026H253.043V302.026H253.12V300.026ZM252.088 300.731L250.834 304.79L252.745 305.38L253.999 301.321L252.088 300.731ZM251.789 306.085H254.374V304.085H251.789V306.085ZM255.33 304.79L254.076 300.731L252.165 301.321L253.419 305.38L255.33 304.79ZM264.596 301.169L265.507 300.757L265.241 300.169H264.596V301.169ZM264.541 301.169V300.169H263.541V301.169H264.541ZM264.541 308V309H265.541V308H264.541ZM263.936 308H262.936V309H263.936V308ZM263.936 300.322V299.322H262.936V300.322H263.936ZM264.871 300.322L265.781 299.908L265.514 299.322H264.871V300.322ZM267.962 307.109L267.051 307.523L267.318 308.109H267.962V307.109ZM268.017 307.109V308.109H269.017V307.109H268.017ZM268.017 300.322V299.322H267.017V300.322H268.017ZM268.622 300.322H269.622V299.322H268.622V300.322ZM268.622 308V309H269.622V308H268.622ZM267.687 308L266.775 308.412L267.041 309H267.687V308ZM264.596 300.169H264.541V302.169H264.596V300.169ZM263.541 301.169V308H265.541V301.169H263.541ZM264.541 307H263.936V309H264.541V307ZM264.936 308V300.322H262.936V308H264.936ZM263.936 301.322H264.871V299.322H263.936V301.322ZM263.96 300.736L267.051 307.523L268.872 306.695L265.781 299.908L263.96 300.736ZM267.962 308.109H268.017V306.109H267.962V308.109ZM269.017 307.109V300.322H267.017V307.109H269.017ZM268.017 301.322H268.622V299.322H268.017V301.322ZM267.622 300.322V308H269.622V300.322H267.622ZM268.622 307H267.687V309H268.622V307ZM268.598 307.588L265.507 300.757L263.684 301.581L266.775 308.412L268.598 307.588ZM277.49 307.142L276.647 307.68L276.654 307.69L277.49 307.142ZM277.49 301.191L276.651 300.647L276.649 300.649L277.49 301.191ZM281.439 301.191L280.596 301.729L280.603 301.739L281.439 301.191ZM281.439 307.142L280.6 306.598L280.598 306.6L281.439 307.142ZM280.922 306.812L281.773 307.338L281.776 307.332L280.922 306.812ZM280.922 301.521L280.068 302.041L280.922 301.521ZM278.018 301.521L278.872 302.041L278.018 301.521ZM278.018 306.812L277.164 307.332L277.167 307.337L278.018 306.812ZM279.47 307.132C278.87 307.132 278.549 306.933 278.326 306.594L276.654 307.69C277.297 308.671 278.295 309.132 279.47 309.132V307.132ZM278.333 306.605C278.058 306.172 277.852 305.404 277.852 304.161H275.852C275.852 305.558 276.071 306.777 276.647 307.679L278.333 306.605ZM277.852 304.161C277.852 302.916 278.058 302.155 278.33 301.733L276.649 300.649C276.071 301.547 275.852 302.766 275.852 304.161H277.852ZM278.329 301.735C278.553 301.389 278.875 301.19 279.47 301.19V299.19C278.29 299.19 277.292 299.659 276.651 300.647L278.329 301.735ZM279.47 301.19C280.065 301.19 280.379 301.388 280.596 301.728L282.282 300.654C281.648 299.659 280.65 299.19 279.47 299.19V301.19ZM280.603 301.739C280.878 302.16 281.088 302.918 281.088 304.161H283.088C283.088 302.764 282.865 301.542 282.275 300.643L280.603 301.739ZM281.088 304.161C281.088 305.402 280.879 306.167 280.6 306.598L282.278 307.686C282.864 306.782 283.088 305.56 283.088 304.161H281.088ZM280.598 306.6C280.384 306.933 280.069 307.132 279.47 307.132V309.132C280.645 309.132 281.644 308.671 282.279 307.684L280.598 306.6ZM279.47 308.56C280.425 308.56 281.257 308.173 281.773 307.337L280.071 306.287C279.971 306.449 279.835 306.56 279.47 306.56V308.56ZM281.776 307.332C282.218 306.606 282.384 305.686 282.384 304.678H280.384C280.384 305.504 280.242 306.006 280.068 306.292L281.776 307.332ZM282.384 304.678V303.644H280.384V304.678H282.384ZM282.384 303.644C282.384 302.642 282.218 301.726 281.776 301.001L280.068 302.041C280.242 302.328 280.384 302.828 280.384 303.644H282.384ZM281.776 301.001C281.263 300.158 280.431 299.762 279.47 299.762V301.762C279.829 301.762 279.965 301.872 280.068 302.041L281.776 301.001ZM279.47 299.762C278.509 299.762 277.677 300.158 277.164 301.001L278.872 302.041C278.975 301.872 279.111 301.762 279.47 301.762V299.762ZM277.164 301.001C276.722 301.726 276.556 302.642 276.556 303.644H278.556C278.556 302.828 278.698 302.328 278.872 302.041L277.164 301.001ZM276.556 303.644V304.678H278.556V303.644H276.556ZM276.556 304.678C276.556 305.686 276.722 306.606 277.164 307.332L278.872 306.292C278.698 306.006 278.556 305.504 278.556 304.678H276.556ZM277.167 307.337C277.683 308.173 278.515 308.56 279.47 308.56V306.56C279.105 306.56 278.969 306.449 278.869 306.287L277.167 307.337ZM292.21 308L291.255 308.296L291.473 309H292.21V308ZM289.834 300.322V299.322H288.478L288.879 300.618L289.834 300.322ZM290.538 300.322L291.496 300.033L291.281 299.322H290.538V300.322ZM292.65 307.318L291.693 307.607L291.908 308.318H292.65V307.318ZM292.694 307.318V308.318H293.436L293.651 307.608L292.694 307.318ZM294.817 300.322V299.322H294.076L293.86 300.032L294.817 300.322ZM295.488 300.322L296.444 300.618L296.845 299.322H295.488V300.322ZM293.112 308V309H293.85L294.068 308.296L293.112 308ZM293.166 307.704L290.79 300.026L288.879 300.618L291.255 308.296L293.166 307.704ZM289.834 301.322H290.538V299.322H289.834V301.322ZM289.581 300.611L291.693 307.607L293.608 307.029L291.496 300.033L289.581 300.611ZM292.65 308.318H292.694V306.318H292.65V308.318ZM293.651 307.608L295.774 300.612L293.86 300.032L291.737 307.028L293.651 307.608ZM294.817 301.322H295.488V299.322H294.817V301.322ZM294.533 300.026L292.157 307.704L294.068 308.296L296.444 300.618L294.533 300.026ZM293.112 307H292.21V309H293.112V307Z" fill="white" fill-opacity="0.03"/>
</g>
<g filter="url(#filter5_d_55_830)">
<path d="M167.038 274.135C166.588 274.135 166.118 274.045 165.628 273.865C165.138 273.685 164.708 273.425 164.338 273.085C164.228 273.005 164.158 272.91 164.128 272.8C164.108 272.69 164.113 272.585 164.143 272.485C164.173 272.375 164.223 272.285 164.293 272.215C164.373 272.135 164.468 272.095 164.578 272.095C164.688 272.085 164.803 272.125 164.923 272.215C165.263 272.505 165.613 272.715 165.973 272.845C166.333 272.975 166.698 273.04 167.068 273.04C167.718 273.04 168.268 272.88 168.718 272.56C169.178 272.24 169.523 271.755 169.753 271.105C169.993 270.455 170.113 269.65 170.113 268.69V267.295H170.248C170.188 267.855 170.018 268.345 169.738 268.765C169.468 269.185 169.118 269.505 168.688 269.725C168.258 269.945 167.773 270.055 167.233 270.055C166.613 270.055 166.063 269.915 165.583 269.635C165.103 269.355 164.728 268.96 164.458 268.45C164.188 267.94 164.053 267.365 164.053 266.725C164.053 266.055 164.193 265.465 164.473 264.955C164.763 264.435 165.158 264.03 165.658 263.74C166.168 263.44 166.753 263.29 167.413 263.29C168.243 263.29 168.948 263.495 169.528 263.905C170.118 264.305 170.563 264.89 170.863 265.66C171.163 266.43 171.313 267.36 171.313 268.45C171.313 269.37 171.218 270.18 171.028 270.88C170.838 271.58 170.558 272.175 170.188 272.665C169.818 273.145 169.368 273.51 168.838 273.76C168.308 274.01 167.708 274.135 167.038 274.135ZM167.488 269.02C167.938 269.02 168.333 268.92 168.673 268.72C169.013 268.52 169.278 268.245 169.468 267.895C169.658 267.535 169.753 267.125 169.753 266.665C169.753 266.205 169.658 265.8 169.468 265.45C169.278 265.1 169.013 264.825 168.673 264.625C168.333 264.425 167.938 264.325 167.488 264.325C167.048 264.325 166.658 264.425 166.318 264.625C165.988 264.825 165.723 265.1 165.523 265.45C165.333 265.8 165.238 266.205 165.238 266.665C165.238 267.125 165.333 267.535 165.523 267.895C165.723 268.245 165.988 268.52 166.318 268.72C166.658 268.92 167.048 269.02 167.488 269.02ZM180.635 274.135C179.845 274.135 179.165 274.02 178.595 273.79C178.035 273.56 177.605 273.225 177.305 272.785C177.015 272.345 176.87 271.815 176.87 271.195C176.87 270.705 176.97 270.27 177.17 269.89C177.37 269.5 177.65 269.185 178.01 268.945C178.37 268.705 178.785 268.555 179.255 268.495V268.72C178.605 268.58 178.085 268.275 177.695 267.805C177.315 267.325 177.125 266.76 177.125 266.11C177.125 265.51 177.265 265.005 177.545 264.595C177.835 264.175 178.245 263.855 178.775 263.635C179.305 263.405 179.925 263.29 180.635 263.29C181.355 263.29 181.975 263.405 182.495 263.635C183.025 263.855 183.435 264.175 183.725 264.595C184.015 265.005 184.16 265.51 184.16 266.11C184.16 266.54 184.07 266.94 183.89 267.31C183.72 267.67 183.475 267.97 183.155 268.21C182.835 268.45 182.46 268.615 182.03 268.705V268.495C182.74 268.595 183.31 268.89 183.74 269.38C184.18 269.86 184.4 270.465 184.4 271.195C184.4 271.815 184.25 272.345 183.95 272.785C183.66 273.225 183.23 273.56 182.66 273.79C182.1 274.02 181.425 274.135 180.635 274.135ZM180.635 273.115C181.485 273.115 182.125 272.95 182.555 272.62C182.995 272.29 183.215 271.79 183.215 271.12C183.215 270.46 182.995 269.97 182.555 269.65C182.125 269.32 181.485 269.155 180.635 269.155C179.795 269.155 179.155 269.32 178.715 269.65C178.275 269.97 178.055 270.46 178.055 271.12C178.055 271.79 178.275 272.29 178.715 272.62C179.155 272.95 179.795 273.115 180.635 273.115ZM180.635 268.135C181.125 268.135 181.54 268.06 181.88 267.91C182.23 267.75 182.5 267.525 182.69 267.235C182.88 266.945 182.975 266.605 182.975 266.215C182.975 265.615 182.765 265.15 182.345 264.82C181.935 264.48 181.365 264.31 180.635 264.31C179.905 264.31 179.335 264.48 178.925 264.82C178.515 265.15 178.31 265.615 178.31 266.215C178.31 266.815 178.515 267.285 178.925 267.625C179.335 267.965 179.905 268.135 180.635 268.135ZM193.856 274.135C193.026 274.135 192.316 273.935 191.726 273.535C191.146 273.125 190.706 272.535 190.406 271.765C190.106 270.995 189.956 270.065 189.956 268.975C189.956 268.055 190.051 267.245 190.241 266.545C190.431 265.845 190.711 265.255 191.081 264.775C191.451 264.285 191.901 263.915 192.431 263.665C192.961 263.415 193.561 263.29 194.231 263.29C194.691 263.29 195.161 263.38 195.641 263.56C196.131 263.74 196.561 263.995 196.931 264.325C197.041 264.405 197.106 264.505 197.126 264.625C197.156 264.735 197.156 264.845 197.126 264.955C197.096 265.055 197.041 265.14 196.961 265.21C196.891 265.28 196.801 265.32 196.691 265.33C196.581 265.33 196.466 265.285 196.346 265.195C196.006 264.905 195.656 264.7 195.296 264.58C194.936 264.45 194.571 264.385 194.201 264.385C193.551 264.385 192.996 264.545 192.536 264.865C192.086 265.185 191.741 265.67 191.501 266.32C191.271 266.96 191.156 267.765 191.156 268.735V270.13H191.021C191.081 269.56 191.246 269.07 191.516 268.66C191.796 268.24 192.151 267.92 192.581 267.7C193.011 267.48 193.496 267.37 194.036 267.37C194.656 267.37 195.206 267.51 195.686 267.79C196.166 268.07 196.541 268.465 196.811 268.975C197.081 269.475 197.216 270.05 197.216 270.7C197.216 271.36 197.076 271.95 196.796 272.47C196.516 272.99 196.121 273.4 195.611 273.7C195.101 273.99 194.516 274.135 193.856 274.135ZM193.781 273.085C194.221 273.085 194.611 272.99 194.951 272.8C195.291 272.6 195.556 272.325 195.746 271.975C195.936 271.615 196.031 271.205 196.031 270.745C196.031 270.285 195.936 269.88 195.746 269.53C195.556 269.18 195.291 268.905 194.951 268.705C194.611 268.505 194.221 268.405 193.781 268.405C193.341 268.405 192.951 268.505 192.611 268.705C192.271 268.905 192.006 269.18 191.816 269.53C191.626 269.88 191.531 270.285 191.531 270.745C191.531 271.205 191.626 271.615 191.816 271.975C192.006 272.325 192.271 272.6 192.611 272.8C192.951 272.99 193.341 273.085 193.781 273.085ZM206.357 274.135C205.147 274.135 204.227 273.67 203.597 272.74C202.967 271.81 202.652 270.465 202.652 268.705C202.652 267.525 202.792 266.535 203.072 265.735C203.352 264.925 203.767 264.315 204.317 263.905C204.877 263.495 205.557 263.29 206.357 263.29C207.577 263.29 208.497 263.75 209.117 264.67C209.747 265.58 210.062 266.92 210.062 268.69C210.062 269.87 209.922 270.865 209.642 271.675C209.362 272.485 208.947 273.1 208.397 273.52C207.847 273.93 207.167 274.135 206.357 274.135ZM206.357 273.07C207.197 273.07 207.817 272.715 208.217 272.005C208.627 271.285 208.832 270.18 208.832 268.69C208.832 267.19 208.627 266.095 208.217 265.405C207.817 264.705 207.197 264.355 206.357 264.355C205.527 264.355 204.907 264.705 204.497 265.405C204.087 266.105 203.882 267.2 203.882 268.69C203.882 270.18 204.087 271.285 204.497 272.005C204.907 272.715 205.527 273.07 206.357 273.07ZM228.255 274C228.035 274 227.87 273.95 227.76 273.85C227.66 273.74 227.61 273.595 227.61 273.415C227.61 273.305 227.635 273.2 227.685 273.1C227.745 272.99 227.825 272.88 227.925 272.77L231.285 269.17C231.795 268.62 232.16 268.115 232.38 267.655C232.61 267.185 232.725 266.71 232.725 266.23C232.725 265.63 232.54 265.175 232.17 264.865C231.81 264.545 231.28 264.385 230.58 264.385C230.13 264.385 229.705 264.455 229.305 264.595C228.905 264.735 228.52 264.95 228.15 265.24C228.02 265.34 227.9 265.385 227.79 265.375C227.69 265.365 227.6 265.325 227.52 265.255C227.44 265.185 227.385 265.095 227.355 264.985C227.325 264.875 227.325 264.765 227.355 264.655C227.395 264.545 227.475 264.445 227.595 264.355C227.985 264.035 228.455 263.78 229.005 263.59C229.555 263.39 230.115 263.29 230.685 263.29C231.395 263.29 231.995 263.4 232.485 263.62C232.975 263.84 233.345 264.165 233.595 264.595C233.845 265.015 233.97 265.53 233.97 266.14C233.97 266.56 233.9 266.975 233.76 267.385C233.63 267.785 233.425 268.195 233.145 268.615C232.875 269.035 232.52 269.47 232.08 269.92L228.885 273.295V272.95H233.94C234.13 272.95 234.27 272.995 234.36 273.085C234.46 273.165 234.51 273.29 234.51 273.46C234.51 273.64 234.46 273.775 234.36 273.865C234.27 273.955 234.13 274 233.94 274H228.255ZM241.702 274.105C241.562 274.105 241.442 274.07 241.342 274C241.242 273.93 241.177 273.835 241.147 273.715C241.127 273.585 241.157 273.445 241.237 273.295L246.052 263.95V264.49H240.652C240.472 264.49 240.332 264.445 240.232 264.355C240.132 264.255 240.082 264.12 240.082 263.95C240.082 263.78 240.132 263.65 240.232 263.56C240.332 263.47 240.472 263.425 240.652 263.425H246.607C246.787 263.425 246.932 263.47 247.042 263.56C247.152 263.65 247.207 263.78 247.207 263.95C247.207 264.09 247.187 264.215 247.147 264.325C247.117 264.425 247.072 264.54 247.012 264.67L242.392 273.685C242.322 273.825 242.232 273.93 242.122 274C242.012 274.07 241.872 274.105 241.702 274.105ZM256.543 274.135C255.333 274.135 254.413 273.67 253.783 272.74C253.153 271.81 252.838 270.465 252.838 268.705C252.838 267.525 252.978 266.535 253.258 265.735C253.538 264.925 253.953 264.315 254.503 263.905C255.063 263.495 255.743 263.29 256.543 263.29C257.763 263.29 258.683 263.75 259.303 264.67C259.933 265.58 260.248 266.92 260.248 268.69C260.248 269.87 260.108 270.865 259.828 271.675C259.548 272.485 259.133 273.1 258.583 273.52C258.033 273.93 257.353 274.135 256.543 274.135ZM256.543 273.07C257.383 273.07 258.003 272.715 258.403 272.005C258.813 271.285 259.018 270.18 259.018 268.69C259.018 267.19 258.813 266.095 258.403 265.405C258.003 264.705 257.383 264.355 256.543 264.355C255.713 264.355 255.093 264.705 254.683 265.405C254.273 266.105 254.068 267.2 254.068 268.69C254.068 270.18 254.273 271.285 254.683 272.005C255.093 272.715 255.713 273.07 256.543 273.07ZM271.174 274.105C270.984 274.105 270.834 274.05 270.724 273.94C270.614 273.83 270.559 273.675 270.559 273.475V271.735H266.254C266.054 271.735 265.894 271.69 265.774 271.6C265.664 271.5 265.609 271.36 265.609 271.18C265.609 271.07 265.634 270.96 265.684 270.85C265.734 270.73 265.824 270.58 265.954 270.4L270.529 263.74C270.619 263.6 270.719 263.495 270.829 263.425C270.939 263.355 271.069 263.32 271.219 263.32C271.379 263.32 271.514 263.37 271.624 263.47C271.744 263.57 271.804 263.73 271.804 263.95V270.685H272.899C273.089 270.685 273.234 270.73 273.334 270.82C273.434 270.91 273.484 271.04 273.484 271.21C273.484 271.38 273.434 271.51 273.334 271.6C273.234 271.69 273.089 271.735 272.899 271.735H271.804V273.475C271.804 273.675 271.749 273.83 271.639 273.94C271.529 274.05 271.374 274.105 271.174 274.105ZM270.559 270.685V264.865H270.919L266.719 271.015V270.685H270.559ZM293.867 274.135C292.657 274.135 291.737 273.67 291.107 272.74C290.477 271.81 290.162 270.465 290.162 268.705C290.162 267.525 290.302 266.535 290.582 265.735C290.862 264.925 291.277 264.315 291.827 263.905C292.387 263.495 293.067 263.29 293.867 263.29C295.087 263.29 296.007 263.75 296.627 264.67C297.257 265.58 297.572 266.92 297.572 268.69C297.572 269.87 297.432 270.865 297.152 271.675C296.872 272.485 296.457 273.1 295.907 273.52C295.357 273.93 294.677 274.135 293.867 274.135ZM293.867 273.07C294.707 273.07 295.327 272.715 295.727 272.005C296.137 271.285 296.342 270.18 296.342 268.69C296.342 267.19 296.137 266.095 295.727 265.405C295.327 264.705 294.707 264.355 293.867 264.355C293.037 264.355 292.417 264.705 292.007 265.405C291.597 266.105 291.392 267.2 291.392 268.69C291.392 270.18 291.597 271.285 292.007 272.005C292.417 272.715 293.037 273.07 293.867 273.07ZM304.554 274C304.374 274 304.234 273.955 304.134 273.865C304.034 273.765 303.984 273.63 303.984 273.46C303.984 273.29 304.034 273.165 304.134 273.085C304.234 272.995 304.374 272.95 304.554 272.95H306.504V264.445H307.149L304.974 265.885C304.844 265.955 304.719 265.985 304.599 265.975C304.489 265.965 304.394 265.925 304.314 265.855C304.244 265.775 304.194 265.685 304.164 265.585C304.134 265.475 304.139 265.365 304.179 265.255C304.219 265.135 304.304 265.035 304.434 264.955L306.504 263.59C306.634 263.51 306.759 263.445 306.879 263.395C306.999 263.345 307.119 263.32 307.239 263.32C307.379 263.32 307.494 263.365 307.584 263.455C307.684 263.535 307.734 263.665 307.734 263.845V272.95H309.534C309.714 272.95 309.854 272.995 309.954 273.085C310.054 273.165 310.104 273.29 310.104 273.46C310.104 273.64 310.054 273.775 309.954 273.865C309.854 273.955 309.714 274 309.534 274H304.554ZM318.855 274.135C318.405 274.135 317.935 274.045 317.445 273.865C316.955 273.685 316.525 273.425 316.155 273.085C316.045 273.005 315.975 272.91 315.945 272.8C315.925 272.69 315.93 272.585 315.96 272.485C315.99 272.375 316.04 272.285 316.11 272.215C316.19 272.135 316.285 272.095 316.395 272.095C316.505 272.085 316.62 272.125 316.74 272.215C317.08 272.505 317.43 272.715 317.79 272.845C318.15 272.975 318.515 273.04 318.885 273.04C319.535 273.04 320.085 272.88 320.535 272.56C320.995 272.24 321.34 271.755 321.57 271.105C321.81 270.455 321.93 269.65 321.93 268.69V267.295H322.065C322.005 267.855 321.835 268.345 321.555 268.765C321.285 269.185 320.935 269.505 320.505 269.725C320.075 269.945 319.59 270.055 319.05 270.055C318.43 270.055 317.88 269.915 317.4 269.635C316.92 269.355 316.545 268.96 316.275 268.45C316.005 267.94 315.87 267.365 315.87 266.725C315.87 266.055 316.01 265.465 316.29 264.955C316.58 264.435 316.975 264.03 317.475 263.74C317.985 263.44 318.57 263.29 319.23 263.29C320.06 263.29 320.765 263.495 321.345 263.905C321.935 264.305 322.38 264.89 322.68 265.66C322.98 266.43 323.13 267.36 323.13 268.45C323.13 269.37 323.035 270.18 322.845 270.88C322.655 271.58 322.375 272.175 322.005 272.665C321.635 273.145 321.185 273.51 320.655 273.76C320.125 274.01 319.525 274.135 318.855 274.135ZM319.305 269.02C319.755 269.02 320.15 268.92 320.49 268.72C320.83 268.52 321.095 268.245 321.285 267.895C321.475 267.535 321.57 267.125 321.57 266.665C321.57 266.205 321.475 265.8 321.285 265.45C321.095 265.1 320.83 264.825 320.49 264.625C320.15 264.425 319.755 264.325 319.305 264.325C318.865 264.325 318.475 264.425 318.135 264.625C317.805 264.825 317.54 265.1 317.34 265.45C317.15 265.8 317.055 266.205 317.055 266.665C317.055 267.125 317.15 267.535 317.34 267.895C317.54 268.245 317.805 268.52 318.135 268.72C318.475 268.92 318.865 269.02 319.305 269.02ZM329.886 274C329.666 274 329.501 273.95 329.391 273.85C329.291 273.74 329.241 273.595 329.241 273.415C329.241 273.305 329.266 273.2 329.316 273.1C329.376 272.99 329.456 272.88 329.556 272.77L332.916 269.17C333.426 268.62 333.791 268.115 334.011 267.655C334.241 267.185 334.356 266.71 334.356 266.23C334.356 265.63 334.171 265.175 333.801 264.865C333.441 264.545 332.911 264.385 332.211 264.385C331.761 264.385 331.336 264.455 330.936 264.595C330.536 264.735 330.151 264.95 329.781 265.24C329.651 265.34 329.531 265.385 329.421 265.375C329.321 265.365 329.231 265.325 329.151 265.255C329.071 265.185 329.016 265.095 328.986 264.985C328.956 264.875 328.956 264.765 328.986 264.655C329.026 264.545 329.106 264.445 329.226 264.355C329.616 264.035 330.086 263.78 330.636 263.59C331.186 263.39 331.746 263.29 332.316 263.29C333.026 263.29 333.626 263.4 334.116 263.62C334.606 263.84 334.976 264.165 335.226 264.595C335.476 265.015 335.601 265.53 335.601 266.14C335.601 266.56 335.531 266.975 335.391 267.385C335.261 267.785 335.056 268.195 334.776 268.615C334.506 269.035 334.151 269.47 333.711 269.92L330.516 273.295V272.95H335.571C335.761 272.95 335.901 272.995 335.991 273.085C336.091 273.165 336.141 273.29 336.141 273.46C336.141 273.64 336.091 273.775 335.991 273.865C335.901 273.955 335.761 274 335.571 274H329.886ZM364.648 274.135C363.858 274.135 363.178 274.02 362.608 273.79C362.048 273.56 361.618 273.225 361.318 272.785C361.028 272.345 360.883 271.815 360.883 271.195C360.883 270.705 360.983 270.27 361.183 269.89C361.383 269.5 361.663 269.185 362.023 268.945C362.383 268.705 362.798 268.555 363.268 268.495V268.72C362.618 268.58 362.098 268.275 361.708 267.805C361.328 267.325 361.138 266.76 361.138 266.11C361.138 265.51 361.278 265.005 361.558 264.595C361.848 264.175 362.258 263.855 362.788 263.635C363.318 263.405 363.938 263.29 364.648 263.29C365.368 263.29 365.988 263.405 366.508 263.635C367.038 263.855 367.448 264.175 367.738 264.595C368.028 265.005 368.173 265.51 368.173 266.11C368.173 266.54 368.083 266.94 367.903 267.31C367.733 267.67 367.488 267.97 367.168 268.21C366.848 268.45 366.473 268.615 366.043 268.705V268.495C366.753 268.595 367.323 268.89 367.753 269.38C368.193 269.86 368.413 270.465 368.413 271.195C368.413 271.815 368.263 272.345 367.963 272.785C367.673 273.225 367.243 273.56 366.673 273.79C366.113 274.02 365.438 274.135 364.648 274.135ZM364.648 273.115C365.498 273.115 366.138 272.95 366.568 272.62C367.008 272.29 367.228 271.79 367.228 271.12C367.228 270.46 367.008 269.97 366.568 269.65C366.138 269.32 365.498 269.155 364.648 269.155C363.808 269.155 363.168 269.32 362.728 269.65C362.288 269.97 362.068 270.46 362.068 271.12C362.068 271.79 362.288 272.29 362.728 272.62C363.168 272.95 363.808 273.115 364.648 273.115ZM364.648 268.135C365.138 268.135 365.553 268.06 365.893 267.91C366.243 267.75 366.513 267.525 366.703 267.235C366.893 266.945 366.988 266.605 366.988 266.215C366.988 265.615 366.778 265.15 366.358 264.82C365.948 264.48 365.378 264.31 364.648 264.31C363.918 264.31 363.348 264.48 362.938 264.82C362.528 265.15 362.323 265.615 362.323 266.215C362.323 266.815 362.528 267.285 362.938 267.625C363.348 267.965 363.918 268.135 364.648 268.135ZM375.53 274.105C375.39 274.105 375.27 274.07 375.17 274C375.07 273.93 375.005 273.835 374.975 273.715C374.955 273.585 374.985 273.445 375.065 273.295L379.88 263.95V264.49H374.48C374.3 264.49 374.16 264.445 374.06 264.355C373.96 264.255 373.91 264.12 373.91 263.95C373.91 263.78 373.96 263.65 374.06 263.56C374.16 263.47 374.3 263.425 374.48 263.425H380.435C380.615 263.425 380.76 263.47 380.87 263.56C380.98 263.65 381.035 263.78 381.035 263.95C381.035 264.09 381.015 264.215 380.975 264.325C380.945 264.425 380.9 264.54 380.84 264.67L376.22 273.685C376.15 273.825 376.06 273.93 375.95 274C375.84 274.07 375.7 274.105 375.53 274.105ZM389.636 274.135C389.186 274.135 388.716 274.045 388.226 273.865C387.736 273.685 387.306 273.425 386.936 273.085C386.826 273.005 386.756 272.91 386.726 272.8C386.706 272.69 386.711 272.585 386.741 272.485C386.771 272.375 386.821 272.285 386.891 272.215C386.971 272.135 387.066 272.095 387.176 272.095C387.286 272.085 387.401 272.125 387.521 272.215C387.861 272.505 388.211 272.715 388.571 272.845C388.931 272.975 389.296 273.04 389.666 273.04C390.316 273.04 390.866 272.88 391.316 272.56C391.776 272.24 392.121 271.755 392.351 271.105C392.591 270.455 392.711 269.65 392.711 268.69V267.295H392.846C392.786 267.855 392.616 268.345 392.336 268.765C392.066 269.185 391.716 269.505 391.286 269.725C390.856 269.945 390.371 270.055 389.831 270.055C389.211 270.055 388.661 269.915 388.181 269.635C387.701 269.355 387.326 268.96 387.056 268.45C386.786 267.94 386.651 267.365 386.651 266.725C386.651 266.055 386.791 265.465 387.071 264.955C387.361 264.435 387.756 264.03 388.256 263.74C388.766 263.44 389.351 263.29 390.011 263.29C390.841 263.29 391.546 263.495 392.126 263.905C392.716 264.305 393.161 264.89 393.461 265.66C393.761 266.43 393.911 267.36 393.911 268.45C393.911 269.37 393.816 270.18 393.626 270.88C393.436 271.58 393.156 272.175 392.786 272.665C392.416 273.145 391.966 273.51 391.436 273.76C390.906 274.01 390.306 274.135 389.636 274.135ZM390.086 269.02C390.536 269.02 390.931 268.92 391.271 268.72C391.611 268.52 391.876 268.245 392.066 267.895C392.256 267.535 392.351 267.125 392.351 266.665C392.351 266.205 392.256 265.8 392.066 265.45C391.876 265.1 391.611 264.825 391.271 264.625C390.931 264.425 390.536 264.325 390.086 264.325C389.646 264.325 389.256 264.425 388.916 264.625C388.586 264.825 388.321 265.1 388.121 265.45C387.931 265.8 387.836 266.205 387.836 266.665C387.836 267.125 387.931 267.535 388.121 267.895C388.321 268.245 388.586 268.52 388.916 268.72C389.256 268.92 389.646 269.02 390.086 269.02ZM403.232 274.135C402.022 274.135 401.102 273.67 400.472 272.74C399.842 271.81 399.527 270.465 399.527 268.705C399.527 267.525 399.667 266.535 399.947 265.735C400.227 264.925 400.642 264.315 401.192 263.905C401.752 263.495 402.432 263.29 403.232 263.29C404.452 263.29 405.372 263.75 405.992 264.67C406.622 265.58 406.937 266.92 406.937 268.69C406.937 269.87 406.797 270.865 406.517 271.675C406.237 272.485 405.822 273.1 405.272 273.52C404.722 273.93 404.042 274.135 403.232 274.135ZM403.232 273.07C404.072 273.07 404.692 272.715 405.092 272.005C405.502 271.285 405.707 270.18 405.707 268.69C405.707 267.19 405.502 266.095 405.092 265.405C404.692 264.705 404.072 264.355 403.232 264.355C402.402 264.355 401.782 264.705 401.372 265.405C400.962 266.105 400.757 267.2 400.757 268.69C400.757 270.18 400.962 271.285 401.372 272.005C401.782 272.715 402.402 273.07 403.232 273.07Z" fill="#D5D5D5" fill-opacity="0.8" shape-rendering="crispEdges"/>
</g>
<g opacity="0.8">
<g opacity="0.9" filter="url(#filter6_d_55_830)">
<rect x="168.25" y="220.25" width="31.5" height="23.881" rx="3.75" fill="url(#paint4_linear_55_830)" stroke="#9F7E3B" stroke-width="0.5"/>
<path d="M168.5 227.5H177C178.105 227.5 179 228.395 179 229.5V233.375M179 243.9V239.25M179 239.25V233.375M179 239.25H168.5M179 233.375H168.5" stroke="black" stroke-opacity="0.76" stroke-width="0.5"/>
<path d="M199.5 227.5H189.5M189.5 227.5V233.375M189.5 227.5V220.5M189.5 243.9V239.25M189.5 239.25V233.375M189.5 239.25H199.5M189.5 233.375H199.5" stroke="black" stroke-opacity="0.76" stroke-width="0.5"/>
</g>
</g>
<g filter="url(#filter7_d_55_830)">
<path fill-rule="evenodd" clip-rule="evenodd" d="M351.051 165.121C350.38 165.121 349.835 165.665 349.835 166.333C349.835 167.004 350.38 167.548 351.051 167.548C351.723 167.548 352.265 167.004 352.265 166.333C352.265 165.665 351.723 165.121 351.051 165.121Z" fill="#FCB64E" fill-opacity="0.8"/>
<path fill-rule="evenodd" clip-rule="evenodd" d="M406.927 181.31C406.255 181.31 405.711 181.854 405.711 182.524C405.711 183.195 406.255 183.735 406.927 183.735C407.599 183.735 408.144 183.195 408.144 182.524C408.144 181.854 407.599 181.31 406.927 181.31Z" fill="#FCB64E" fill-opacity="0.8"/>
<path fill-rule="evenodd" clip-rule="evenodd" d="M335.049 177.981C334.375 177.981 333.833 178.525 333.833 179.195C333.833 179.865 334.375 180.408 335.049 180.408C335.717 180.408 336.263 179.865 336.263 179.195C336.263 178.525 335.717 177.981 335.049 177.981Z" fill="#FCB64E" fill-opacity="0.8"/>
<path fill-rule="evenodd" clip-rule="evenodd" d="M377.6 178.072C376.928 178.072 376.386 178.615 376.386 179.285C376.386 179.955 376.928 180.499 377.6 180.499C378.271 180.499 378.815 179.955 378.815 179.285C378.815 178.615 378.271 178.072 377.6 178.072Z" fill="#EE3152" fill-opacity="0.8"/>
<path fill-rule="evenodd" clip-rule="evenodd" d="M367.459 167.019C366.788 167.019 366.244 167.561 366.244 168.232C366.244 168.901 366.788 169.448 367.459 169.448C368.128 169.448 368.673 168.901 368.673 168.232C368.673 167.561 368.128 167.019 367.459 167.019Z" fill="#EE3152" fill-opacity="0.8"/>
<path fill-rule="evenodd" clip-rule="evenodd" d="M346.253 165.121C345.584 165.121 345.039 165.665 345.039 166.335C345.039 167.006 345.584 167.548 346.253 167.548C346.925 167.548 347.47 167.006 347.47 166.335C347.47 165.665 346.925 165.121 346.253 165.121Z" fill="#EE3152" fill-opacity="0.8"/>
<path fill-rule="evenodd" clip-rule="evenodd" d="M306.173 181.31C305.501 181.31 304.956 181.854 304.956 182.524C304.956 183.196 305.501 183.736 306.173 183.736C306.843 183.736 307.386 183.196 307.386 182.524C307.386 181.854 306.843 181.31 306.173 181.31Z" fill="#D4D4D4" fill-opacity="0.8"/>
<path fill-rule="evenodd" clip-rule="evenodd" d="M397.593 181.31C396.921 181.31 396.377 181.854 396.377 182.524C396.377 183.195 396.921 183.735 397.593 183.735C398.261 183.735 398.806 183.195 398.806 182.524C398.806 181.854 398.261 181.31 397.593 181.31Z" fill="#D4D4D4" fill-opacity="0.8"/>
<path fill-rule="evenodd" clip-rule="evenodd" d="M378.715 165.847C378.52 165.403 378.083 165.121 377.601 165.121C377.115 165.121 376.682 165.403 376.488 165.847L370.818 178.8C370.55 179.411 370.83 180.128 371.442 180.397C372.061 180.666 372.773 180.386 373.045 179.771L377.601 169.362L381.413 178.072H379.218C379.474 178.408 379.628 178.828 379.628 179.285C379.628 179.74 379.474 180.16 379.218 180.499H383.271C383.68 180.499 384.063 180.292 384.289 179.949C384.514 179.607 384.549 179.174 384.384 178.8L378.715 165.847Z" fill="#D4D4D4" fill-opacity="0.8"/>
<path fill-rule="evenodd" clip-rule="evenodd" d="M366.938 166.278C365.758 165.544 364.364 165.121 362.877 165.121C360.758 165.121 358.825 165.983 357.434 167.371C356.045 168.76 355.182 170.688 355.182 172.809C355.182 174.93 356.045 176.858 357.434 178.246C358.825 179.637 360.758 180.499 362.877 180.499C364.998 180.499 366.929 179.637 368.317 178.246C368.795 177.772 368.795 177.005 368.317 176.529C367.842 176.056 367.074 176.056 366.601 176.529C365.643 177.485 364.335 178.069 362.877 178.072C361.419 178.069 360.112 177.485 359.155 176.529C358.199 175.573 357.611 174.265 357.611 172.809C357.611 171.352 358.199 170.045 359.155 169.089C360.112 168.133 361.419 167.548 362.877 167.548C363.808 167.548 364.68 167.787 365.434 168.21C365.442 167.285 366.079 166.506 366.938 166.278Z" fill="#D4D4D4" fill-opacity="0.8"/>
<path fill-rule="evenodd" clip-rule="evenodd" d="M406.927 165.121H402.064C401.747 165.121 401.432 165.249 401.208 165.475C400.981 165.701 400.852 166.015 400.852 166.333V179.285C400.852 179.955 401.397 180.499 402.064 180.499C402.736 180.499 403.281 179.955 403.281 179.285V167.548H406.927C407.937 167.548 408.842 167.955 409.504 168.615C410.165 169.277 410.571 170.182 410.571 171.191V177.665C410.571 178.675 410.164 179.577 409.504 180.241C409.159 180.583 408.75 180.854 408.301 181.039C408.698 181.409 408.953 181.936 408.953 182.523C408.953 182.864 408.866 183.185 408.715 183.469C409.675 183.174 410.532 182.647 411.222 181.959C412.321 180.864 413.003 179.34 413 177.665V171.191C413.003 169.518 412.321 167.994 411.222 166.899C410.126 165.802 408.599 165.121 406.927 165.121Z" fill="#D4D4D4" fill-opacity="0.8"/>
<path fill-rule="evenodd" clip-rule="evenodd" d="M349.835 167.951V179.286C349.835 179.956 350.38 180.5 351.051 180.5C351.723 180.5 352.264 179.956 352.264 179.286V167.951C351.926 168.204 351.507 168.361 351.051 168.361C350.595 168.361 350.174 168.204 349.835 167.951Z" fill="#D4D4D4" fill-opacity="0.8"/>
<path fill-rule="evenodd" clip-rule="evenodd" d="M333.432 177.982H328.164V166.213C328.164 165.542 327.621 165 326.947 165C326.275 165 325.733 165.542 325.733 166.213V179.195C325.733 179.513 325.863 179.825 326.09 180.053C326.313 180.281 326.628 180.409 326.947 180.409H333.432C333.176 180.07 333.023 179.651 333.023 179.195C333.023 178.738 333.176 178.319 333.432 177.982Z" fill="#D4D4D4" fill-opacity="0.8"/>
<path fill-rule="evenodd" clip-rule="evenodd" d="M307.386 180.909V166.333C307.386 165.768 307.002 165.283 306.452 165.155C305.901 165.023 305.339 165.286 305.087 165.791L299.693 176.572L294.3 165.791C294.047 165.286 293.485 165.023 292.934 165.155C292.383 165.283 292 165.768 292 166.333V182.523C292 183.195 292.542 183.739 293.214 183.739C293.885 183.739 294.43 183.195 294.43 182.523V171.479L298.606 179.829C298.812 180.241 299.23 180.499 299.693 180.499C300.155 180.499 300.574 180.241 300.78 179.829L304.956 171.479V180.909C305.299 180.651 305.719 180.499 306.173 180.499C306.629 180.499 307.051 180.651 307.386 180.909Z" fill="#D4D4D4" fill-opacity="0.8"/>
<path fill-rule="evenodd" clip-rule="evenodd" d="M397.593 180.499L394.871 176.871C395.69 176.565 396.423 176.086 397.026 175.484C398.126 174.389 398.809 172.863 398.806 171.191V171.183C398.806 169.512 398.122 167.992 397.026 166.899C395.934 165.804 394.406 165.121 392.734 165.121H387.871C387.553 165.121 387.241 165.249 387.013 165.475C386.787 165.701 386.656 166.015 386.656 166.333L386.656 179.285C386.656 179.955 387.201 180.499 387.871 180.499C388.543 180.499 389.088 179.955 389.088 179.285V167.548H392.734C393.743 167.548 394.647 167.955 395.31 168.615C395.971 169.277 396.377 170.182 396.377 171.191C396.377 172.201 395.971 173.104 395.31 173.765C394.647 174.427 393.743 174.834 392.734 174.834C392.27 174.834 391.853 175.093 391.647 175.503C391.44 175.915 391.484 176.408 391.76 176.777L395.649 181.957C395.893 181.117 396.674 180.499 397.593 180.499Z" fill="#D4D4D4" fill-opacity="0.8"/>
<path fill-rule="evenodd" clip-rule="evenodd" d="M344.639 165.121H336.535C335.863 165.121 335.321 165.665 335.321 166.335C335.321 167.006 335.863 167.548 336.535 167.548H340.181V179.023C340.181 179.693 340.723 180.239 341.396 180.239C342.065 180.239 342.61 179.693 342.61 179.023V167.548H344.639C344.384 167.208 344.23 166.79 344.23 166.335C344.23 165.877 344.384 165.458 344.639 165.121Z" fill="#D4D4D4" fill-opacity="0.8"/>
<path fill-rule="evenodd" clip-rule="evenodd" d="M320.385 167.947V174.429C320.385 175.439 319.979 176.339 319.317 177.003C318.654 177.665 317.749 178.072 316.738 178.072C315.729 178.072 314.825 177.665 314.162 177.003C313.5 176.339 313.095 175.439 313.095 174.429V166.335C313.095 165.665 312.552 165.121 311.88 165.121C311.208 165.121 310.663 165.665 310.663 166.335V174.429C310.663 176.1 311.347 177.628 312.442 178.722C313.538 179.818 315.066 180.5 316.738 180.499C318.413 180.5 319.938 179.818 321.036 178.722C322.132 177.628 322.816 176.1 322.816 174.429V167.947C322.477 168.205 322.056 168.357 321.599 168.357C321.143 168.357 320.72 168.205 320.385 167.947Z" fill="#D4D4D4" fill-opacity="0.8"/>
<path fill-rule="evenodd" clip-rule="evenodd" d="M321.599 165.121C320.928 165.121 320.385 165.665 320.385 166.335C320.385 167.006 320.928 167.548 321.599 167.548C322.271 167.548 322.816 167.006 322.816 166.335C322.816 165.665 322.271 165.121 321.599 165.121Z" fill="#D4D4D4" fill-opacity="0.8"/>
</g>
<defs>
<filter id="filter0_d_55_830" x="385" y="220" width="32" height="32" filterUnits="userSpaceOnUse" color-interpolation-filters="sRGB">
<feFlood flood-opacity="0" result="BackgroundImageFix"/>
<feColorMatrix in="SourceAlpha" type="matrix" values="0 0 0 0 0 0 0 0 0 0 0 0 0 0 0 0 0 0 127 0" result="hardAlpha"/>
<feOffset dy="4"/>
<feGaussianBlur stdDeviation="2"/>
<feComposite in2="hardAlpha" operator="out"/>
<feColorMatrix type="matrix" values="0 0 0 0 0 0 0 0 0 0 0 0 0 0 0 0 0 0 0.25 0"/>
<feBlend mode="normal" in2="BackgroundImageFix" result="effect1_dropShadow_55_830"/>
<feBlend mode="normal" in="SourceGraphic" in2="effect1_dropShadow_55_830" result="shape"/>
</filter>
<filter id="filter1_f_55_830" x="279" y="0" width="264" height="265" filterUnits="userSpaceOnUse" color-interpolation-filters="sRGB">
<feFlood flood-opacity="0" result="BackgroundImageFix"/>
<feBlend mode="normal" in="SourceGraphic" in2="BackgroundImageFix" result="shape"/>
<feGaussianBlur stdDeviation="15.5" result="effect1_foregroundBlur_55_830"/>
</filter>
<filter id="filter2_f_55_830" x="0" y="156" width="280" height="285" filterUnits="userSpaceOnUse" color-interpolation-filters="sRGB">
<feFlood flood-opacity="0" result="BackgroundImageFix"/>
<feBlend mode="normal" in="SourceGraphic" in2="BackgroundImageFix" result="shape"/>
<feGaussianBlur stdDeviation="20" result="effect1_foregroundBlur_55_830"/>
</filter>
<filter id="filter3_bd_55_830" x="95" y="101" width="386" height="272" filterUnits="userSpaceOnUse" color-interpolation-filters="sRGB">
<feFlood flood-opacity="0" result="BackgroundImageFix"/>
<feGaussianBlur in="BackgroundImage" stdDeviation="20"/>
<feComposite in2="SourceAlpha" operator="in" result="effect1_backgroundBlur_55_830"/>
<feColorMatrix in="SourceAlpha" type="matrix" values="0 0 0 0 0 0 0 0 0 0 0 0 0 0 0 0 0 0 127 0" result="hardAlpha"/>
<feMorphology radius="5" operator="erode" in="SourceAlpha" result="effect2_dropShadow_55_830"/>
<feOffset dx="21" dy="19"/>
<feGaussianBlur stdDeviation="9.5"/>
<feComposite in2="hardAlpha" operator="out"/>
<feColorMatrix type="matrix" values="0 0 0 0 0 0 0 0 0 0 0 0 0 0 0 0 0 0 0.25 0"/>
<feBlend mode="normal" in2="effect1_backgroundBlur_55_830" result="effect2_dropShadow_55_830"/>
<feBlend mode="normal" in="SourceGraphic" in2="effect2_dropShadow_55_830" result="shape"/>
</filter>
<filter id="filter4_d_55_830" x="164" y="300.19" width="131.488" height="8.94202" filterUnits="userSpaceOnUse" color-interpolation-filters="sRGB">
<feFlood flood-opacity="0" result="BackgroundImageFix"/>
<feColorMatrix in="SourceAlpha" type="matrix" values="0 0 0 0 0 0 0 0 0 0 0 0 0 0 0 0 0 0 127 0" result="hardAlpha"/>
<feOffset dx="-1" dy="1"/>
<feComposite in2="hardAlpha" operator="out"/>
<feColorMatrix type="matrix" values="0 0 0 0 0 0 0 0 0 0 0 0 0 0 0 0 0 0 0.5 0"/>
<feBlend mode="normal" in2="BackgroundImageFix" result="effect1_dropShadow_55_830"/>
<feBlend mode="normal" in="SourceGraphic" in2="effect1_dropShadow_55_830" result="shape"/>
</filter>
<filter id="filter5_d_55_830" x="159.053" y="263.29" width="250.884" height="19.845" filterUnits="userSpaceOnUse" color-interpolation-filters="sRGB">
<feFlood flood-opacity="0" result="BackgroundImageFix"/>
<feColorMatrix in="SourceAlpha" type="matrix" values="0 0 0 0 0 0 0 0 0 0 0 0 0 0 0 0 0 0 127 0" result="hardAlpha"/>
<feOffset dx="-1" dy="5"/>
<feGaussianBlur stdDeviation="2"/>
<feComposite in2="hardAlpha" operator="out"/>
<feColorMatrix type="matrix" values="0 0 0 0 0 0 0 0 0 0 0 0 0 0 0 0 0 0 0.5 0"/>
<feBlend mode="normal" in2="BackgroundImageFix" result="effect1_dropShadow_55_830"/>
<feBlend mode="normal" in="SourceGraphic" in2="effect1_dropShadow_55_830" result="shape"/>
</filter>
<filter id="filter6_d_55_830" x="164" y="216" width="40" height="42" filterUnits="userSpaceOnUse" color-interpolation-filters="sRGB">
<feFlood flood-opacity="0" result="BackgroundImageFix"/>
<feColorMatrix in="SourceAlpha" type="matrix" values="0 0 0 0 0 0 0 0 0 0 0 0 0 0 0 0 0 0 127 0" result="hardAlpha"/>
<feOffset dy="6"/>
<feGaussianBlur stdDeviation="2"/>
<feComposite in2="hardAlpha" operator="out"/>
<feColorMatrix type="matrix" values="0 0 0 0 0 0 0 0 0 0 0 0 0 0 0 0 0 0 0.25 0"/>
<feBlend mode="normal" in2="BackgroundImageFix" result="effect1_dropShadow_55_830"/>
<feBlend mode="normal" in="SourceGraphic" in2="effect1_dropShadow_55_830" result="shape"/>
</filter>
<filter id="filter7_d_55_830" x="287" y="165" width="129" height="27.7385" filterUnits="userSpaceOnUse" color-interpolation-filters="sRGB">
<feFlood flood-opacity="0" result="BackgroundImageFix"/>
<feColorMatrix in="SourceAlpha" type="matrix" values="0 0 0 0 0 0 0 0 0 0 0 0 0 0 0 0 0 0 127 0" result="hardAlpha"/>
<feOffset dx="-1" dy="5"/>
<feGaussianBlur stdDeviation="2"/>
<feComposite in2="hardAlpha" operator="out"/>
<feColorMatrix type="matrix" values="0 0 0 0 0 0 0 0 0 0 0 0 0 0 0 0 0 0 0.25 0"/>
<feBlend mode="normal" in2="BackgroundImageFix" result="effect1_dropShadow_55_830"/>
<feBlend mode="normal" in="SourceGraphic" in2="effect1_dropShadow_55_830" result="shape"/>
</filter>
<radialGradient id="paint0_radial_55_830" cx="0" cy="0" r="1" gradientUnits="userSpaceOnUse" gradientTransform="translate(431.91 163.029) rotate(45.9569) scale(157.2 157.176)">
<stop stop-color="#005FF8"/>
<stop offset="1" stop-color="#1E3F1D" stop-opacity="0"/>
</radialGradient>
<radialGradient id="paint1_radial_55_830" cx="0" cy="0" r="1" gradientUnits="userSpaceOnUse" gradientTransform="translate(160.703 329.33) rotate(46.5223) scale(157.256 157.097)">
<stop stop-color="#2FCA96"/>
<stop offset="1" stop-color="#1E3F1D" stop-opacity="0"/>
</radialGradient>
<linearGradient id="paint2_linear_55_830" x1="22.2353" y1="-18.2335" x2="514.494" y2="342.952" gradientUnits="userSpaceOnUse">
<stop stop-color="white" stop-opacity="0.39"/>
<stop offset="0.674014" stop-color="white" stop-opacity="0"/>
<stop offset="0.893994" stop-color="#C4C4C4" stop-opacity="0"/>
</linearGradient>
<linearGradient id="paint3_linear_55_830" x1="640" y1="374" x2="153.741" y2="479.179" gradientUnits="userSpaceOnUse">
<stop offset="0.633333" stop-color="#7F7F7F" stop-opacity="0.23"/>
<stop offset="0.773958" stop-color="#5C5C5C"/>
</linearGradient>
<linearGradient id="paint4_linear_55_830" x1="168" y1="220" x2="200" y2="244.5" gradientUnits="userSpaceOnUse">
<stop stop-color="#E6AC3C"/>
<stop offset="1" stop-color="#FFDA93"/>
</linearGradient>
</defs>
</svg>
