<svg width="28" height="27" viewBox="0 0 28 27" fill="none" xmlns="http://www.w3.org/2000/svg">
<path d="M27.1719 13.5C27.1719 20.9558 21.1277 27 13.6719 27C6.21603 27 0.171875 20.9558 0.171875 13.5C0.171875 6.04416 6.21603 0 13.6719 0C21.1277 0 27.1719 6.04416 27.1719 13.5Z" fill="url(#paint0_linear_109_524)"/>
<path d="M11.5119 17.55V26.73C11.5119 26.8791 11.6328 27 11.7819 27H15.5619C15.711 27 15.8319 26.8791 15.8319 26.73V17.55C15.8319 17.4009 15.9528 17.28 16.1019 17.28H18.8019C18.951 17.28 19.0719 17.1591 19.0719 17.01V13.77C19.0719 13.6209 18.951 13.5 18.8019 13.5H16.1019C15.9528 13.5 15.8319 13.3793 15.8319 13.2302V10.8C15.8319 9.72 17.1819 9.18 17.7219 9.18H19.3419C19.491 9.18 19.6119 9.05912 19.6119 8.91V5.67C19.6119 5.52088 19.491 5.4 19.3419 5.4H15.8319C13.2399 5.4 11.5119 8.1 11.5119 9.72V13.23C11.5119 13.3791 11.391 13.5 11.2419 13.5H8.54187C8.39276 13.5 8.27188 13.6209 8.27188 13.77V17.01C8.27188 17.1591 8.39276 17.28 8.54187 17.28H11.2419C11.391 17.28 11.5119 17.4009 11.5119 17.55Z" fill="white"/>
<defs>
<linearGradient id="paint0_linear_109_524" x1="13.6719" y1="0" x2="13.6719" y2="27" gradientUnits="userSpaceOnUse">
<stop/>
<stop offset="1"/>
</linearGradient>
</defs>
</svg>
