<svg width="261" height="72" viewBox="0 0 261 72" fill="none" xmlns="http://www.w3.org/2000/svg">
<rect x="0.612915" width="72" height="72" rx="16" fill="#F5F5F5"/>
<path d="M36.6129 17C31.5738 17 26.7411 19.0018 23.1779 22.565C19.6147 26.1282 17.6129 30.9609 17.6129 36C17.6129 41.0391 19.6147 45.8718 23.1779 49.435C26.7411 52.9982 31.5738 55 36.6129 55L36.6129 36V17Z" fill="#2FCA96"/>
<path d="M36.6129 55C41.652 55 46.4848 52.9982 50.0479 49.435C53.6111 45.8718 55.6129 41.0391 55.6129 36C55.6129 30.9609 53.6111 26.1282 50.0479 22.565C46.4848 19.0018 41.652 17 36.6129 17L36.6129 36L36.6129 55Z" fill="#AAE6CC"/>
<path d="M95.2109 22.086V17.114H102.933V15.244H95.2109V10.514H103.879V8.6H93.0109V24H104.187V22.086H95.2109ZM117.366 22.152V12.34H108.324L108.148 16.278C107.994 19.226 107.708 22.064 106.036 22.152H105.42V26.706H107.422V24H117.168V26.706H119.148V22.152H117.366ZM110.084 16.432L110.194 14.188H115.254V22.152H108.72C109.776 21.228 109.996 18.852 110.084 16.432ZM121.899 24H123.835L130.963 15.508V24H133.075V12.34H131.161L124.011 20.832V12.34H121.899V24ZM137.175 24H139.287V19.116H145.931V24H148.043V12.34H145.931V17.29H139.287V12.34H137.175V24ZM157.407 16.3L154.261 16.278V12.34H152.149V24L157.055 24.022C160.179 24.044 161.939 22.636 161.939 20.106C161.939 17.708 160.355 16.322 157.407 16.3ZM163.677 24H165.789V12.34H163.677V24ZM156.901 22.416L154.261 22.394V17.818L156.901 17.862C158.815 17.884 159.805 18.544 159.805 20.084C159.805 21.646 158.793 22.438 156.901 22.416ZM175.351 10.822C177.485 10.822 178.783 9.766 178.827 7.786H177.353C177.331 8.886 176.539 9.59 175.329 9.59C174.141 9.59 173.349 8.886 173.327 7.786H171.897C171.919 9.766 173.217 10.822 175.351 10.822ZM169.895 24H171.831L178.959 15.508V24H181.071V12.34H179.157L172.007 20.832V12.34H169.895V24ZM199.769 12.34H189.121V14.188H193.389V24H195.501V14.188H199.769V12.34ZM206.086 12.23C204.216 12.23 202.478 12.758 201.268 13.726L202.148 15.31C203.05 14.54 204.458 14.056 205.844 14.056C207.934 14.056 208.968 15.09 208.968 16.872V17.29H205.624C202.148 17.29 200.938 18.83 200.938 20.7C200.938 22.724 202.61 24.132 205.25 24.132C207.076 24.132 208.374 23.516 209.078 22.46V24H211.08V16.96C211.08 13.77 209.276 12.23 206.086 12.23ZM205.602 22.504C203.996 22.504 203.028 21.778 203.028 20.612C203.028 19.622 203.622 18.808 205.712 18.808H208.968V20.436C208.44 21.778 207.186 22.504 205.602 22.504ZM221.066 12.23C219.35 12.23 217.854 12.89 216.908 14.188V12.34H214.884V28.268H216.996V22.24C217.964 23.494 219.416 24.132 221.066 24.132C224.476 24.132 226.962 21.756 226.962 18.17C226.962 14.606 224.476 12.23 221.066 12.23ZM220.89 22.284C218.668 22.284 216.974 20.656 216.974 18.17C216.974 15.706 218.668 14.078 220.89 14.078C223.134 14.078 224.828 15.706 224.828 18.17C224.828 20.656 223.134 22.284 220.89 22.284ZM230.03 24H231.966L239.094 15.508V24H241.206V12.34H239.292L232.142 20.832V12.34H230.03V24ZM260.023 18.148C260.023 14.54 257.471 12.472 253.137 12.23V7.676H251.069V12.23C246.691 12.45 244.205 14.54 244.205 18.148C244.205 21.8 246.713 23.912 251.069 24.154V28.268H253.137V24.154C257.493 23.912 260.023 21.778 260.023 18.148ZM246.295 18.148C246.295 15.728 247.857 14.32 251.069 14.1V22.284C247.879 22.064 246.295 20.634 246.295 18.148ZM253.137 22.306V14.1C256.327 14.32 257.933 15.706 257.933 18.148C257.933 20.656 256.327 22.064 253.137 22.306Z" fill="#999999"/>
<path d="M99.3769 54.336C104.977 54.336 107.693 51.536 107.693 48.26C107.693 41.064 96.2969 43.556 96.2969 39.944C96.2969 38.712 97.3329 37.704 100.021 37.704C101.757 37.704 103.633 38.208 105.453 39.244L106.853 35.8C105.033 34.652 102.513 34.064 100.049 34.064C94.4769 34.064 91.7889 36.836 91.7889 40.168C91.7889 47.448 103.185 44.928 103.185 48.596C103.185 49.8 102.093 50.696 99.4049 50.696C97.0529 50.696 94.5889 49.856 92.9369 48.652L91.3969 52.068C93.1329 53.412 96.2689 54.336 99.3769 54.336ZM119.024 50.192C118.548 50.556 117.904 50.752 117.26 50.752C116.084 50.752 115.384 50.052 115.384 48.764V42.632H119.136V39.272H115.384V35.604H111.016V39.272H108.692V42.632H111.016V48.82C111.016 52.404 113.088 54.224 116.644 54.224C117.988 54.224 119.304 53.916 120.2 53.272L119.024 50.192ZM128.728 38.712C126.32 38.712 123.884 39.356 122.232 40.532L123.8 43.584C124.892 42.716 126.544 42.184 128.14 42.184C130.492 42.184 131.612 43.276 131.612 45.152H128.14C123.548 45.152 121.672 47 121.672 49.66C121.672 52.264 123.772 54.224 127.3 54.224C129.512 54.224 131.08 53.496 131.892 52.124V54H135.98V45.404C135.98 40.84 133.32 38.712 128.728 38.712ZM128.392 51.284C126.852 51.284 125.928 50.556 125.928 49.464C125.928 48.456 126.572 47.7 128.616 47.7H131.612V49.24C131.108 50.612 129.848 51.284 128.392 51.284ZM149.09 38.712C147.046 38.712 145.282 39.412 144.106 40.7V38.936H139.934V54H144.302V46.552C144.302 43.78 145.814 42.492 147.914 42.492C149.846 42.492 150.966 43.612 150.966 46.048V54H155.334V45.376C155.334 40.784 152.646 38.712 149.09 38.712ZM170.433 33.224V40.532C169.341 39.3 167.773 38.712 165.925 38.712C161.669 38.712 158.393 41.736 158.393 46.468C158.393 51.2 161.669 54.224 165.925 54.224C167.941 54.224 169.537 53.58 170.629 52.264V54H174.801V33.224H170.433ZM166.681 50.64C164.497 50.64 162.817 49.072 162.817 46.468C162.817 43.864 164.497 42.296 166.681 42.296C168.837 42.296 170.517 43.864 170.517 46.468C170.517 49.072 168.837 50.64 166.681 50.64ZM184.92 38.712C182.512 38.712 180.076 39.356 178.424 40.532L179.992 43.584C181.084 42.716 182.736 42.184 184.332 42.184C186.684 42.184 187.804 43.276 187.804 45.152H184.332C179.74 45.152 177.864 47 177.864 49.66C177.864 52.264 179.964 54.224 183.492 54.224C185.704 54.224 187.272 53.496 188.084 52.124V54H192.172V45.404C192.172 40.84 189.512 38.712 184.92 38.712ZM184.584 51.284C183.044 51.284 182.12 50.556 182.12 49.464C182.12 48.456 182.764 47.7 184.808 47.7H187.804V49.24C187.3 50.612 186.04 51.284 184.584 51.284ZM200.297 40.924V38.936H196.125V54H200.493V46.888C200.493 44.004 202.089 42.688 204.497 42.688C204.833 42.688 205.113 42.716 205.477 42.744V38.712C203.153 38.712 201.361 39.468 200.297 40.924ZM217.134 50.192C216.658 50.556 216.014 50.752 215.37 50.752C214.194 50.752 213.494 50.052 213.494 48.764V42.632H217.246V39.272H213.494V35.604H209.126V39.272H206.802V42.632H209.126V48.82C209.126 52.404 211.198 54.224 214.754 54.224C216.098 54.224 217.414 53.916 218.31 53.272L217.134 50.192Z" fill="black"/>
</svg>
