<svg width="100" height="100" viewBox="0 0 100 100" fill="none" xmlns="http://www.w3.org/2000/svg">
<path d="M49.9999 91.6666C26.9874 91.6666 8.33325 73.0125 8.33325 50C8.33325 31.3416 20.5958 15.55 37.4999 10.2416V19.0916C30.3371 22.0002 24.4074 27.3071 20.7252 34.1046C17.0429 40.9022 15.8369 48.7679 17.3135 56.3564C18.79 63.9449 22.8574 70.7846 28.8198 75.7055C34.7822 80.6264 42.2691 83.3228 49.9999 83.3333C56.6407 83.3331 63.1301 81.3502 68.6368 77.6385C74.1434 73.9268 78.4164 68.6555 80.9082 62.5H89.7582C84.4499 79.4041 68.6583 91.6666 49.9999 91.6666V91.6666ZM91.4583 54.1666H45.8333V8.54165C47.2041 8.40415 48.5958 8.33331 49.9999 8.33331C73.0124 8.33331 91.6666 26.9875 91.6666 50C91.6666 51.4041 91.5958 52.7958 91.4583 54.1666ZM54.1666 16.925V45.8333H83.0749C82.1475 38.49 78.8035 31.6639 73.5698 26.4301C68.336 21.1964 61.5099 17.8524 54.1666 16.925Z" fill="black"/>
</svg>
