<svg width="70" height="70" viewBox="0 0 70 70" fill="none" xmlns="http://www.w3.org/2000/svg">
<path d="M58.5754 30.625L62.0812 32.7279C62.2975 32.8574 62.4765 33.0407 62.6009 33.26C62.7252 33.4793 62.7905 33.7271 62.7905 33.9791C62.7905 34.2312 62.7252 34.479 62.6009 34.6983C62.4765 34.9176 62.2975 35.1009 62.0812 35.2304L35 51.4791L7.91873 35.2304C7.70245 35.1009 7.52342 34.9176 7.39912 34.6983C7.27481 34.479 7.20947 34.2312 7.20947 33.9791C7.20947 33.7271 7.27481 33.4793 7.39912 33.26C7.52342 33.0407 7.70245 32.8574 7.91873 32.7279L11.4246 30.625L35 44.7708L58.5754 30.625ZM58.5754 44.3333L62.0812 46.4362C62.2975 46.5657 62.4765 46.749 62.6009 46.9683C62.7252 47.1876 62.7905 47.4354 62.7905 47.6875C62.7905 47.9396 62.7252 48.1873 62.6009 48.4066C62.4765 48.6259 62.2975 48.8092 62.0812 48.9387L36.5021 64.2862C36.0484 64.5588 35.5292 64.7028 35 64.7028C34.4708 64.7028 33.9515 64.5588 33.4979 64.2862L7.91873 48.9387C7.70245 48.8092 7.52342 48.6259 7.39912 48.4066C7.27481 48.1873 7.20947 47.9396 7.20947 47.6875C7.20947 47.4354 7.27481 47.1876 7.39912 46.9683C7.52342 46.749 7.70245 46.5657 7.91873 46.4362L11.4246 44.3333L35 58.4791L58.5754 44.3333V44.3333ZM36.4992 3.8179L62.0812 19.1654C62.2975 19.2949 62.4765 19.4782 62.6009 19.6975C62.7252 19.9168 62.7905 20.1646 62.7905 20.4166C62.7905 20.6687 62.7252 20.9165 62.6009 21.1358C62.4765 21.3551 62.2975 21.5384 62.0812 21.6679L35 37.9166L7.91873 21.6679C7.70245 21.5384 7.52342 21.3551 7.39912 21.1358C7.27481 20.9165 7.20947 20.6687 7.20947 20.4166C7.20947 20.1646 7.27481 19.9168 7.39912 19.6975C7.52342 19.4782 7.70245 19.2949 7.91873 19.1654L33.4979 3.8179C33.9515 3.54535 34.4708 3.40137 35 3.40137C35.5292 3.40137 36.0484 3.54535 36.5021 3.8179H36.4992Z" fill="#2FCA96"/>
</svg>
