<svg width="70" height="70" viewBox="0 0 70 70" fill="none" xmlns="http://www.w3.org/2000/svg">
<path d="M32.0833 5.83325L53.3692 12.4833C53.9628 12.6686 54.4817 13.0388 54.8501 13.5399C55.2184 14.041 55.4169 14.6467 55.4167 15.2687V20.4166H61.25C62.0235 20.4166 62.7654 20.7239 63.3124 21.2709C63.8594 21.8178 64.1667 22.5597 64.1667 23.3333V46.6666C64.1667 47.4401 63.8594 48.182 63.3124 48.729C62.7654 49.276 62.0235 49.5832 61.25 49.5832L51.8583 49.5862C50.7296 51.0737 49.3587 52.3862 47.775 53.4653L32.0833 64.1666L16.3917 53.4683C14.0365 51.8625 12.1093 49.7057 10.7775 47.1855C9.44571 44.6653 8.7497 41.8579 8.75 39.0074V15.2687C8.75035 14.6472 8.94917 14.0422 9.31747 13.5417C9.68578 13.0412 10.2043 12.6714 10.7975 12.4862L32.0833 5.83325ZM32.0833 11.9408L14.5833 17.4124V39.0074C14.5829 40.7931 14.9924 42.555 15.7802 44.1575C16.5681 45.7599 17.7132 47.1602 19.1275 48.2503L19.6788 48.647L32.0833 57.1082L43.1142 49.5832H29.1667C28.3931 49.5832 27.6513 49.276 27.1043 48.729C26.5573 48.182 26.25 47.4401 26.25 46.6666V23.3333C26.25 22.5597 26.5573 21.8178 27.1043 21.2709C27.6513 20.7239 28.3931 20.4166 29.1667 20.4166H49.5833V17.4124L32.0833 11.9408ZM32.0833 34.9999V43.7499H58.3333V34.9999H32.0833ZM32.0833 29.1666H58.3333V26.2499H32.0833V29.1666Z" fill="#2FCA96"/>
</svg>
