<svg width="140" height="36" viewBox="0 0 140 36" fill="none" xmlns="http://www.w3.org/2000/svg">
<g clip-path="url(#clip0_55_541)">
<path d="M48.0427 6.23932L41.5123 15.6963L47.7013 24.674L54.7005 6.23932L57.823 6.23932L65.0327 25.2946L61.0723 25.2946L59.6254 21.1659L52.8477 21.1659L51.3751 25.2946L48.1293 25.2946L47.4655 25.2946L43.8374 25.2946L38.111 16.3756L38.111 25.2946L34.5737 25.2946L34.5737 6.23932L38.111 6.23932L38.111 15.2376L44.0975 6.23932L48.0427 6.23932ZM58.5339 17.9371L56.2745 10.9236L53.9645 17.9371L58.5339 17.9371ZM129.663 25.2946L125.671 25.2946L124.212 21.1659L117.379 21.1659L115.895 25.2946L111.954 25.2946L119.247 6.23932L122.395 6.23932L129.663 25.2946ZM123.112 17.9371L120.834 10.9236L118.505 17.9371L123.112 17.9371ZM139.319 9.65329L135.781 9.65329L135.781 25.2946L132.17 25.2946L132.17 9.65329L128.633 9.65329L128.633 6.23932L139.319 6.23932L139.319 9.65329ZM110.857 25.2946L101.367 25.2946L101.367 6.23932L105.442 6.23932L105.442 21.8277L110.857 21.8277L110.857 25.2946ZM98.1702 15.7139C98.1702 18.5196 97.2389 20.8792 95.3769 22.7936C93.5147 24.708 91.2365 25.6652 88.542 25.6652C85.8477 25.6652 83.5693 24.6948 81.7071 22.7539C79.8453 20.813 78.9142 18.4663 78.9142 15.7139C78.9142 12.9617 79.8624 10.6325 81.7589 8.72703C83.655 6.82153 85.925 5.86865 88.5679 5.86865C91.2622 5.86865 93.5363 6.82591 95.3898 8.7402C97.2432 10.6545 98.1702 12.9792 98.1702 15.7139ZM94.4117 15.6875C94.4117 13.9938 93.8409 12.5205 92.6995 11.2677C91.5582 10.0149 90.1724 9.38854 88.542 9.38854C86.8945 9.38854 85.5046 10.0193 84.3716 11.2811C83.2391 12.5427 82.6727 14.0202 82.6727 15.7139C82.6727 17.4432 83.2391 18.9473 84.3716 20.2264C85.5046 21.5054 86.8945 22.145 88.542 22.145C90.2752 22.145 91.6998 21.5011 92.8155 20.2133C93.8794 18.9605 94.4117 17.452 94.4117 15.6875ZM76.6527 6.23932L76.6527 9.65329L70.4313 9.65329L70.4313 14.0731L76.5717 14.0731L76.5717 17.4871L70.4313 17.4871L70.4313 25.2946L66.5632 25.2946L66.5632 6.23932L76.6527 6.23932Z" fill="#093A75"/>
<path fill-rule="evenodd" clip-rule="evenodd" d="M0.466065 15.5102L4.81235 11.1283L4.81235 4.93106L10.959 4.93106L15.3053 0.548828L19.6518 4.93106L25.7982 4.93106L25.7982 11.1283L30.1447 15.5102L25.7982 19.8922L25.7982 26.0893L19.6515 26.0893L15.3053 30.4713L10.9591 26.0893L4.81235 26.0893L4.81235 19.8922L0.466065 15.5102Z" fill="#093A75"/>
<path fill-rule="evenodd" clip-rule="evenodd" d="M15.3577 6.25928L15.9116 12.5712L18.8188 6.95343L16.9348 12.9983L21.7532 8.93L17.718 13.788L23.7137 11.8885L18.1417 14.8196L24.4022 15.378L18.1417 15.9363L23.7137 18.8677L17.718 16.9679L21.7532 21.826L16.9348 17.7576L18.8188 23.8027L15.9116 18.1851L15.3577 24.4966L14.8038 18.1851L11.8967 23.8027L13.7807 17.7576L8.96229 21.826L12.9975 16.9679L7.00166 18.8677L12.5737 15.9363L6.31323 15.378L12.5737 14.8196L7.00166 11.8885L12.9975 13.788L8.96229 8.93L13.7807 12.9983L11.8967 6.95343L14.8038 12.5712L15.3577 6.25928Z" fill="white"/>
<path fill-rule="evenodd" clip-rule="evenodd" d="M6.21058 6.34106L11.5381 6.34106L15.3054 2.54268L19.0727 6.34106L24.4 6.34106L24.4 11.7121L28.1675 15.5105L24.4 19.3086L24.4 24.6799L19.0724 24.6799L15.3054 28.478L11.5382 24.6799L6.21058 24.6799L6.21058 19.3086L2.44343 15.5105L6.21058 11.7124L6.21058 6.34106ZM24.9206 19.5259L28.9037 15.5105L24.9206 11.4948L24.9206 5.81619L19.2882 5.81619L15.3054 1.80078L11.3225 5.81619L5.69002 5.81619L5.69002 11.4951L1.70728 15.5105L5.69002 19.5259L5.69002 25.2049L11.3227 25.2049L15.3054 29.2202L19.288 25.2049L24.9206 25.2049L24.9206 19.5259Z" fill="white"/>
</g>
<defs>
<clipPath id="clip0_55_541">
<rect width="138.992" height="35.188" fill="white" transform="translate(0.466064 0.548828)"/>
</clipPath>
</defs>
</svg>
