<svg width="96" height="51" viewBox="0 0 96 51" fill="none" xmlns="http://www.w3.org/2000/svg">
<path d="M31.4386 21.3621H37.4956V43.4621C37.4956 45.0889 37.1638 46.4051 36.5003 47.4104C35.8368 48.4158 34.8841 49.1516 33.6424 49.6177C32.4102 50.0838 30.9362 50.3169 29.2206 50.3169C29.012 50.3169 28.813 50.3123 28.6234 50.3032C28.4243 50.3032 28.2158 50.2986 27.9978 50.2895L27.9978 45.7242C28.1589 45.7333 28.3011 45.7379 28.4243 45.7379C28.5381 45.747 28.6613 45.7516 28.794 45.7516C29.7703 45.7516 30.4528 45.5505 30.8414 45.1483C31.2395 44.7553 31.4386 44.1613 31.4386 43.3661L31.4386 21.3621Z" fill="black"/>
<path d="M53.0152 42.8314C50.7687 42.8314 48.8351 42.3927 47.2142 41.5153C45.6028 40.6287 44.3611 39.3766 43.489 37.7588C42.617 36.132 42.181 34.208 42.181 31.9871C42.181 29.8209 42.617 27.9199 43.489 26.2838C44.3611 24.6478 45.5886 23.3728 47.1715 22.4588C48.764 21.5449 50.6313 21.0879 52.7735 21.0879C54.2143 21.0879 55.5555 21.3118 56.7972 21.7596C58.0484 22.1983 59.1385 22.861 60.0674 23.7475C61.0058 24.6341 61.7357 25.7492 62.257 27.0927C62.7784 28.4271 63.039 29.99 63.039 31.7814V33.3854L44.598 33.3854V29.7661L57.3375 29.7661C57.3375 28.9252 57.148 28.1803 56.7688 27.5314C56.3897 26.8825 55.8636 26.3752 55.1906 26.0096C54.5271 25.6349 53.7546 25.4475 52.873 25.4475C51.9536 25.4475 51.1384 25.6532 50.4275 26.0645C49.7261 26.4666 49.1763 27.0104 48.7782 27.6959C48.3801 28.3723 48.1763 29.1263 48.1668 29.958V33.3992C48.1668 34.4411 48.3659 35.3414 48.764 36.1C49.1716 36.8586 49.745 37.4435 50.4844 37.8548C51.2237 38.2661 52.1005 38.4717 53.1147 38.4717C53.7877 38.4717 54.4039 38.3803 54.9631 38.1975C55.5224 38.0147 56.001 37.7405 56.3991 37.375C56.7972 37.0094 57.1006 36.5615 57.3091 36.0314L62.9111 36.3879C62.6267 37.6857 62.0438 38.819 61.1622 39.7879C60.2902 40.7475 59.1622 41.497 57.7783 42.0362C56.4039 42.5664 54.8162 42.8314 53.0152 42.8314Z" fill="black"/>
<path d="M79.3229 21.3621V25.7492H66.1711V21.3621H79.3229ZM69.1569 16.3169H75.2139V35.9492C75.2139 36.4884 75.2992 36.9088 75.4698 37.2104C75.6404 37.5029 75.8774 37.7086 76.1807 37.8274C76.4935 37.9462 76.8537 38.0056 77.2613 38.0056C77.5456 38.0056 77.83 37.9828 78.1144 37.9371C78.3987 37.8822 78.6167 37.8411 78.7684 37.8137L79.721 42.1596C79.4177 42.251 78.9912 42.3561 78.4414 42.475C77.8916 42.6029 77.2234 42.6806 76.4366 42.708C74.9769 42.7629 73.6973 42.5755 72.5977 42.1459C71.5077 41.7164 70.6593 41.0492 70.0527 40.1443C69.446 39.2395 69.1474 38.097 69.1569 36.7169V16.3169Z" fill="black"/>
<path d="M95.5997 21.3621V25.7492L82.4479 25.7492V21.3621L95.5997 21.3621ZM85.4337 16.3169H91.4906V35.9492C91.4906 36.4884 91.5759 36.9088 91.7466 37.2104C91.9172 37.5029 92.1542 37.7086 92.4575 37.8274C92.7703 37.9462 93.1305 38.0056 93.5381 38.0056C93.8224 38.0056 94.1068 37.9828 94.3911 37.9371C94.6755 37.8822 94.8935 37.8411 95.0452 37.8137L95.9978 42.1596C95.6945 42.251 95.2679 42.3561 94.7182 42.475C94.1684 42.6029 93.5001 42.6806 92.7134 42.708C91.2537 42.7629 89.974 42.5755 88.8745 42.1459C87.7844 41.7164 86.9361 41.0492 86.3294 40.1443C85.7228 39.2395 85.4242 38.097 85.4337 36.7169V16.3169Z" fill="black"/>
<path d="M27.0096 8.87114C28.7869 8.22146 30.5122 9.94669 29.8625 11.724L20.8736 36.3154C20.204 38.1471 17.6692 38.2917 16.7956 36.5481L12.2995 27.5746C12.0859 27.1483 11.7411 26.802 11.3157 26.5866L2.14858 21.9442C0.412785 21.0651 0.562446 18.5385 2.38987 17.8705L27.0096 8.87114Z" fill="#2FCA96"/>
</svg>
