<svg width="101" height="43" viewBox="0 0 101 43" fill="none" xmlns="http://www.w3.org/2000/svg">
<g clip-path="url(#clip0_55_552)">
<path fill-rule="evenodd" clip-rule="evenodd" d="M26.3064 39.8859L19.0942 34.0234C18.7054 34.6162 18.292 35.1853 17.8556 35.7295L26.3064 42.5991L26.3064 39.8859ZM19.0954 9.56708L26.3064 3.70528L26.3061 0.992187L17.856 7.86127L16.9842 8.56987L15.2398 9.98787L13.5721 11.3438L13.0527 11.7658L11.163 13.3021L10.2884 14.0131L0.714356 21.7956L10.2884 29.5782C10.7291 29.0301 11.1243 28.4434 11.4681 27.8241L4.05207 21.7956L4.40611 21.5078L11.4681 15.7673L12.3545 15.0466L14.2642 13.4943L16.4676 11.7032L18.2218 10.2771L19.0954 9.56708Z" fill="#5A5344"/>
<path fill-rule="evenodd" clip-rule="evenodd" d="M20.4434 31.6636L26.3065 36.4299L26.3065 33.7168L21.3156 29.6594C21.0603 30.3346 20.7696 31.0035 20.4434 31.6636ZM21.3144 13.9329L26.3065 9.87472L26.3065 7.16162L20.4444 11.9268L19.5567 12.6485L17.7592 14.1095L15.4825 15.9601L13.4825 17.5859L12.5405 18.3519L8.30396 21.7957L12.5405 25.2395C12.7584 24.4805 12.9061 23.6917 12.9762 22.8804L11.6416 21.7957L12.9762 20.7109L14.0115 19.869L16.1552 18.1267L16.8431 17.5677L18.5419 16.1865L20.4027 14.6739L21.3144 13.9329Z" fill="#94867F"/>
<path fill-rule="evenodd" clip-rule="evenodd" d="M11.163 30.289C8.7005 33.3518 4.93472 35.31 0.714356 35.31L0.714356 37.7544C5.69795 37.7544 10.1449 35.4419 13.0529 31.8253C13.4931 31.2777 13.898 30.7005 14.2642 30.0969C14.7376 29.3165 15.146 28.4921 15.4826 27.631C15.7556 26.9317 15.9812 26.2083 16.155 25.4648C16.4306 24.2868 16.5764 23.0582 16.5764 21.7955C16.5764 20.9757 16.5149 20.1703 16.3963 19.3837L14.135 21.2218C14.1428 21.412 14.1468 21.6033 14.1468 21.7955C14.1468 22.4496 14.1006 23.0928 14.0113 23.7221C13.9002 24.5068 13.7217 25.27 13.4823 26.0053C13.1925 26.8962 12.813 27.7462 12.3545 28.5444C12.0022 29.1583 11.6036 29.7414 11.163 30.289ZM12.3154 10.9119C9.41986 7.78926 5.29367 5.83691 0.714355 5.83691L0.714355 8.28115C4.53021 8.28115 7.97453 9.88206 10.4198 12.4527L12.3154 10.9119Z" fill="#D22D19"/>
<path fill-rule="evenodd" clip-rule="evenodd" d="M15.2401 33.6033C11.8167 37.8608 6.58153 40.5833 0.714434 40.5833L0.714356 42.8395C7.28609 42.8395 13.15 39.7903 16.9845 35.0214C17.4244 34.4742 17.8374 33.9047 18.2221 33.3144C18.7156 32.5564 19.1618 31.7646 19.5564 30.943C19.8722 30.2862 20.1549 29.6101 20.4026 28.9176C21.1975 26.6934 21.6308 24.2953 21.6308 21.7959C21.6308 19.7212 21.3323 17.7167 20.7764 15.8234L18.8681 17.3745C19.208 18.7924 19.3883 20.2728 19.3883 21.7956C19.3883 23.7493 19.0917 25.6334 18.5418 27.4047C18.3206 28.1161 18.0591 28.8095 17.7591 29.4818C17.3858 30.3182 16.9537 31.1219 16.4678 31.8882C16.0902 32.4835 15.6799 33.0562 15.2401 33.6033ZM0.714434 3.00812C6.17739 3.00812 11.0924 5.36822 14.5071 9.1303L16.2545 7.71012C12.426 3.43759 6.88196 0.751953 0.714434 0.751953L0.714434 3.00812Z" fill="#F22519"/>
<path d="M44.337 20.5415L46.6671 20.5415L46.6671 10.1051L44.337 10.1051L44.337 20.5415ZM72.8074 9.51074C75.8996 9.51074 78.4065 12.0328 78.4065 15.144C78.4065 16.7834 77.7102 18.2591 76.5993 19.2885L78.1498 21.2026L75.668 21.2026L74.9704 20.3414C74.3049 20.6221 73.5741 20.7773 72.8074 20.7773C69.7149 20.7773 67.208 18.2551 67.208 15.144C67.208 12.0328 69.7149 9.51074 72.8074 9.51074ZM71.9417 16.6031L74.4235 16.6031L75.0546 17.382C75.6203 16.8071 75.9694 16.0165 75.9694 15.144C75.9694 13.387 74.5536 11.9627 72.8074 11.9627C71.061 11.9627 69.6451 13.387 69.6451 15.144C69.6451 16.9012 71.061 18.3253 72.8074 18.3253C72.9768 18.3253 73.1429 18.3118 73.3052 18.2859L71.9417 16.6031ZM37.5247 9.51074C40.617 9.51074 43.1237 12.0328 43.1237 15.144C43.1237 16.7834 42.4275 18.2591 41.3165 19.2885L42.8672 21.2026L40.3851 21.2026L39.6876 20.3414C39.0222 20.6221 38.2914 20.7773 37.5247 20.7773C34.4321 20.7773 31.9253 18.2551 31.9253 15.144C31.9253 12.0328 34.4321 9.51074 37.5247 9.51074ZM36.6589 16.6031L39.1409 16.6031L39.7719 17.382C40.3374 16.8071 40.6867 16.0165 40.6867 15.144C40.6867 13.387 39.271 11.9627 37.5247 11.9627C35.7781 11.9627 34.3625 13.387 34.3625 15.144C34.3625 16.9012 35.7781 18.3253 37.5247 18.3253C37.6942 18.3253 37.8603 18.3118 38.0224 18.2859L36.6589 16.6031ZM98.0429 10.1051L95.3456 16.8812L92.6627 10.1051L89.7779 10.1051L89.7779 20.5415L92.0137 20.5415L92.0137 14.1434L94.5669 20.5415L96.0958 20.5415L98.6633 14.1134L98.6633 20.5415L100.899 20.5415L100.899 10.1051L98.0429 10.1051ZM50.9186 18.3331L55.7656 11.7841L55.7656 10.1051L47.8112 10.1051L47.8112 12.3133L52.5989 12.3133L47.7519 18.8625L47.7519 20.5415L55.8696 20.5415L55.8696 18.3331L50.9186 18.3331ZM57.098 20.5415L59.4283 20.5415L59.4283 10.1051L57.098 10.1051L57.098 20.5415ZM62.9408 18.3331L62.9408 10.1051L60.6107 10.1051L60.6107 20.5415L66.2184 20.5415L66.2184 18.3331L62.9408 18.3331ZM83.8871 20.7228C86.3376 20.7228 88.217 18.9079 88.217 16.4878L88.217 10.1051L85.8867 10.1051L85.8867 16.4576C85.8867 17.607 85.0298 18.4693 83.8871 18.4693C82.7297 18.4693 81.8878 17.6072 81.8878 16.4576L81.8878 10.1051L79.5576 10.1051L79.5576 16.4878C79.5576 18.9076 81.4218 20.7228 83.8871 20.7228Z" fill="#F71D14"/>
<path d="M83.8948 26.0705L82.4221 26.0705L82.4221 23.5884L80.2505 23.5884L80.2505 26.0705L78.8672 26.0705L78.8672 28.0172L80.2505 28.0172L80.2505 33.5349L82.4221 33.5349L82.4221 28.0172L83.8948 28.0172L83.8948 26.0705ZM47.2017 29.832C47.2017 27.5634 45.4316 25.8949 43.1113 25.8949C40.7759 25.8949 39.021 27.578 39.021 29.8028C39.021 32.0276 40.7759 33.7107 43.1113 33.7107C45.0001 33.7107 46.5022 32.6567 47.0526 31.1054L44.7473 31.1054C44.4946 31.5298 43.8847 31.8517 43.1556 31.8517C42.2485 31.8517 41.5789 31.3248 41.3412 30.4906L47.1419 30.4906C47.1867 30.315 47.2017 30.0222 47.2017 29.832ZM43.1113 27.3268C43.9442 27.3268 44.6431 27.8388 44.8662 28.6584L41.3561 28.6584C41.6088 27.8388 42.2634 27.3268 43.1113 27.3268ZM69.7082 29.832C69.7082 27.5634 67.9383 25.8949 65.6179 25.8949C63.2827 25.8949 61.5275 27.578 61.5275 29.8028C61.5275 32.0276 63.2827 33.7107 65.6179 33.7107C67.5068 33.7107 69.009 32.6567 69.5594 31.1054L67.2541 31.1054C67.0011 31.5298 66.3913 31.8517 65.6625 31.8517C64.7554 31.8517 64.0858 31.3248 63.8479 30.4906L69.6487 30.4906C69.6935 30.315 69.7082 30.0222 69.7082 29.832ZM65.6179 27.3268C66.4509 27.3268 67.15 27.8388 67.3731 28.6584L63.863 28.6584C64.1157 27.8388 64.7702 27.3268 65.6179 27.3268ZM75.1639 25.8949C74.2268 25.8949 73.4385 26.2316 72.8583 26.8901L72.8583 26.0705L70.6867 26.0705L70.6867 33.5349L72.8583 33.5349L72.8583 29.4807C72.8583 28.5586 73.4977 27.9587 74.4348 27.9587C75.3125 27.9587 75.8925 28.544 75.8925 29.4515L75.8925 33.5349L78.0641 33.5349L78.0641 28.7343C78.0641 27.0218 76.9039 25.8949 75.1639 25.8949ZM35.062 33.7107C36.7662 33.7107 38.1705 32.8177 38.1705 31.2518C38.1705 29.7443 36.8923 29.2173 35.6772 28.9393C34.8883 28.7636 34.3362 28.5294 34.3362 28.105C34.3362 27.8269 34.6358 27.5925 35.0145 27.5925C35.4407 27.5925 35.7561 27.8853 35.7561 28.2367L38.0602 28.2367C38.0602 26.934 36.7662 25.8949 35.0304 25.8949C33.4368 25.8949 32.0322 26.7146 32.0322 28.2513C32.0322 29.7881 33.3578 30.359 34.5727 30.6224C35.2354 30.7541 35.8667 30.9736 35.8667 31.442C35.8667 31.764 35.5193 32.0128 35.0779 32.0128C34.6044 32.0128 34.2256 31.6761 34.2256 31.2663L31.9219 31.2663C31.9219 32.6128 33.2472 33.7107 35.062 33.7107ZM57.4448 25.8949C56.4069 25.8949 55.571 26.3341 55.0089 27.1829C54.562 26.3779 53.7404 25.8949 52.6882 25.8949C51.8378 25.8949 51.1315 26.2316 50.5981 26.8609L50.5981 26.0705L48.4938 26.0705L48.4938 33.5349L50.5981 33.5349L50.5981 29.3343C50.5981 28.5147 51.1604 27.9587 51.982 27.9587C52.746 27.9587 53.2503 28.5002 53.2503 29.3051L53.2503 33.5349L55.3547 33.5349L55.3547 29.3343C55.3547 28.5147 55.917 27.9587 56.7384 27.9587C57.5024 27.9587 58.0068 28.5002 58.0068 29.3051L58.0068 33.5349L60.1113 33.5349L60.1113 28.6611C60.1113 26.9926 59.0447 25.8949 57.4448 25.8949Z" fill="#5C5445"/>
</g>
<defs>
<clipPath id="clip0_55_552">
<rect width="100.286" height="42.2256" fill="white" transform="translate(0.714355 0.751953)"/>
</clipPath>
</defs>
</svg>
