<svg width="102" height="37" viewBox="0 0 102 37" fill="none" xmlns="http://www.w3.org/2000/svg">
<g clip-path="url(#clip0_55_534)">
<path fill-rule="evenodd" clip-rule="evenodd" d="M33.3351 9.52614C31.7928 7.00355 29.648 4.89091 27.1018 3.38918C24.4308 1.81386 21.3143 0.909668 17.9837 0.909668C14.6534 0.909668 11.5368 1.81362 8.8659 3.38918C6.31946 4.89091 4.17482 7.00355 2.6322 9.52614C5.43377 10.496 7.65739 12.687 8.68225 15.4505C9.18492 14.0959 9.97403 12.881 10.9765 11.8795C12.7717 10.0863 15.2489 8.97763 17.9837 8.97763C20.7196 8.97763 23.1975 10.087 24.9928 11.8814C25.9939 12.8822 26.7827 14.0964 27.285 15.4496C28.3125 12.6777 30.5382 10.4965 33.3351 9.52614Z" fill="#B1B3B3"/>
<path fill-rule="evenodd" clip-rule="evenodd" d="M26.6656 23.7154C26.2143 24.5303 25.6519 25.2749 24.9991 25.9284C23.2035 27.7248 20.7229 28.8359 17.9837 28.8359C15.2439 28.8359 12.7633 27.7246 10.968 25.9277C9.17231 24.1307 8.06181 21.6483 8.06181 18.9066C8.06181 15.1154 5.61671 11.7796 2.01282 10.6221C1.39578 11.8108 0.90755 13.0754 0.566669 14.3974C0.196907 15.8318 4.3434e-08 17.343 5.35385e-08 18.9066C8.56537e-08 23.8761 2.01282 28.3756 5.26724 31.6322C8.52166 34.889 13.0177 36.9033 17.9837 36.9033C20.3385 36.9033 22.5711 35.9632 24.2149 34.2748C25.7397 32.7094 26.6772 30.5725 26.6679 28.2176L26.6656 23.7154Z" fill="#00355F"/>
<path fill-rule="evenodd" clip-rule="evenodd" d="M35.9676 18.907C35.9676 17.3433 35.7706 15.832 35.4009 14.3976C35.0601 13.0756 34.5718 11.811 33.9546 10.6226C30.3655 11.7639 27.9122 15.113 27.9036 18.8843L27.9036 28.2155C27.9138 31.0738 26.6875 33.7865 24.5409 35.671C26.9066 34.7434 29.0286 33.3287 30.7834 31.5507C33.9887 28.3012 35.9676 23.8359 35.9676 18.907Z" fill="#D70B0E"/>
<path fill-rule="evenodd" clip-rule="evenodd" d="M51.3353 28.9073C53.6212 28.9073 55.4993 28.3627 56.9418 27.246C58.3842 26.1295 59.1191 24.6588 59.1191 22.7793C59.1191 21.1456 58.6019 19.8652 57.5677 18.9665C56.5336 18.0677 55.0911 17.3052 53.2676 16.706C52.4784 16.461 51.2264 16.1339 50.655 15.9434L49.7843 15.6439C49.2128 15.3987 48.9949 15.1264 48.9949 14.7721C48.9949 13.9282 49.8385 13.5194 51.4987 13.5194C52.5874 13.5194 53.7031 13.7101 54.8736 14.0643C56.0438 14.4183 57.0505 14.854 57.8944 15.3716L57.8944 10.6597C55.9077 9.59742 53.7574 9.08008 51.4441 9.08008C46.8719 9.08008 43.9598 11.1227 43.9598 14.7995C43.9598 15.916 44.2865 16.924 44.6405 17.6047C45.0484 18.2855 45.9467 18.939 46.4911 19.3479C46.7903 19.5386 47.1987 19.7289 47.7429 19.9468L48.9949 20.4372L50.383 20.8458L52.0975 21.363C52.424 21.4721 53.1043 21.6628 53.3222 21.8535C53.7574 22.153 54.0569 22.3979 54.0569 22.97C54.0569 23.9778 53.0772 24.4683 51.1447 24.4683C49.92 24.4683 48.6138 24.2227 47.2259 23.7055C45.8381 23.1879 44.7492 22.589 43.9598 21.8535L43.9598 26.8646C45.9467 28.2266 48.3961 28.9073 51.3353 28.9073Z" fill="#00355F"/>
<path fill-rule="evenodd" clip-rule="evenodd" d="M89.4504 13.4433L93.0972 13.4433C94.2946 13.4433 95.0568 14.0697 95.0568 15.1317C95.0568 16.1394 94.2946 16.7658 93.0972 16.7658L89.4504 16.7658L89.4504 13.4433ZM89.4504 20.3884L93.3964 20.3884C94.8388 20.3884 95.7915 21.1508 95.7915 22.4306C95.7915 23.7109 94.8934 24.4461 93.3964 24.4461L89.4504 24.4461L89.4504 20.3884ZM94.349 28.5314C96.3901 28.5314 98.0504 28.0413 99.2751 27.0336C100.527 26.0258 101.153 24.6915 101.153 23.057C101.153 21.6682 100.772 20.5516 100.037 19.6529C99.3022 18.7539 98.4586 18.2092 97.5335 17.9914C98.7034 17.4467 99.765 16.1394 99.765 14.2875C99.765 11.1554 97.3156 9.4668 93.8321 9.4668L84.552 9.4668L84.552 28.5314L94.349 28.5314Z" fill="#00355F"/>
<path fill-rule="evenodd" clip-rule="evenodd" d="M67.7869 22.9572C66.8286 21.9432 66.3629 20.6276 66.3629 19.0651C66.3629 17.5028 66.8286 16.1874 67.7869 15.1732C68.7456 14.1593 69.951 13.6384 71.4024 13.6384C72.8539 13.6384 74.0317 14.1593 74.9907 15.1732C75.9488 16.1874 76.442 17.5028 76.442 19.0651C76.442 20.6276 75.9488 21.9432 74.9907 22.9572C74.0317 23.9716 72.8539 24.4922 71.4024 24.4922C69.951 24.4922 68.7456 23.9716 67.7869 22.9572ZM77.5379 33.4551C78.6607 33.4551 79.6739 33.2358 80.6049 32.8248L80.6049 28.7405C79.9205 29.1244 79.1533 29.3162 78.3318 29.3162C77.2638 29.3162 76.3874 28.9325 75.7301 28.1378C77.51 27.3427 78.9071 26.1094 79.9476 24.4922C80.9885 22.8751 81.509 21.0662 81.509 19.0651C81.509 16.2969 80.55 13.9398 78.6334 11.9936C76.716 10.0478 74.3057 9.08838 71.4024 9.08838C68.4992 9.08838 66.089 10.0478 64.1715 11.9936C62.2546 13.9398 61.2959 16.2969 61.2959 19.0651C61.2959 21.6691 62.145 23.9443 63.8704 25.8351C65.5961 27.7264 67.7869 28.7682 70.4438 28.9875C73.1005 32.2764 75.2369 33.4551 77.5379 33.4551Z" fill="#00355F"/>
</g>
<defs>
<clipPath id="clip0_55_534">
<rect width="101.165" height="36.0677" fill="white" transform="translate(0 0.909668)"/>
</clipPath>
</defs>
</svg>
