<svg width="28" height="27" viewBox="0 0 28 27" fill="none" xmlns="http://www.w3.org/2000/svg">
<g clip-path="url(#clip0_109_522)">
<path d="M13.6719 27C21.1277 27 27.1719 20.9558 27.1719 13.5C27.1719 6.04416 21.1277 0 13.6719 0C6.21603 0 0.171875 6.04416 0.171875 13.5C0.171875 20.9558 6.21603 27 13.6719 27Z" fill="url(#paint0_linear_109_522)"/>
<path fill-rule="evenodd" clip-rule="evenodd" d="M6.28275 13.3575C10.2183 11.6428 12.8426 10.5124 14.1557 9.9663C17.9047 8.40692 18.6838 8.13604 19.1915 8.12709C19.3032 8.12513 19.5529 8.1528 19.7147 8.28405C19.8512 8.39487 19.8888 8.54458 19.9068 8.64965C19.9248 8.75472 19.9472 8.99407 19.9294 9.1811C19.7262 11.3158 18.8471 16.496 18.3999 18.8869C18.2106 19.8986 17.838 20.2378 17.4773 20.271C16.6933 20.3431 16.098 19.7529 15.3387 19.2551C14.1505 18.4763 13.4793 17.9914 12.3259 17.2314C10.9931 16.353 11.8571 15.8703 12.6167 15.0813C12.8155 14.8749 16.2697 11.733 16.3366 11.448C16.3449 11.4124 16.3527 11.2795 16.2737 11.2093C16.1948 11.1392 16.0783 11.1632 15.9942 11.1822C15.8751 11.2093 13.9769 12.4639 10.2998 14.946C9.76107 15.316 9.27306 15.4962 8.83582 15.4868C8.3538 15.4764 7.42659 15.2142 6.7373 14.9902C5.89187 14.7154 5.21993 14.5701 5.27844 14.1033C5.30891 13.8602 5.64369 13.6116 6.28275 13.3575Z" fill="white"/>
</g>
<defs>
<linearGradient id="paint0_linear_109_522" x1="13.6719" y1="0" x2="13.6719" y2="26.7998" gradientUnits="userSpaceOnUse">
<stop/>
<stop offset="1"/>
</linearGradient>
<clipPath id="clip0_109_522">
<rect width="27" height="27" fill="white" transform="translate(0.171875)"/>
</clipPath>
</defs>
</svg>
