<svg width="28" height="27" viewBox="0 0 28 27" fill="none" xmlns="http://www.w3.org/2000/svg">
<path d="M19.2626 9.89657C20.9294 11.0923 22.9713 11.7959 25.1767 11.7959V7.53692C24.7593 7.53701 24.343 7.49333 23.9347 7.40651V10.7589C21.7295 10.7589 19.6878 10.0554 18.0206 8.8597V17.551C18.0206 21.8988 14.5085 25.4231 10.1764 25.4231C8.55999 25.4231 7.0576 24.9327 5.80957 24.0916C7.234 25.5533 9.22046 26.46 11.4181 26.46C15.7505 26.46 19.2628 22.9356 19.2628 18.5877V9.89657H19.2626ZM20.7947 5.59982C19.9429 4.66587 19.3836 3.45891 19.2626 2.12457V1.57678H18.0856C18.3819 3.27273 19.3924 4.72164 20.7947 5.59982ZM8.54963 20.7553C8.0737 20.129 7.8165 19.3629 7.81766 18.5752C7.81766 16.5867 9.42405 14.9744 11.4059 14.9744C11.7753 14.9743 12.1424 15.031 12.4944 15.1431V10.789C12.083 10.7324 11.6679 10.7084 11.2529 10.7172V14.1062C10.9007 13.9942 10.5333 13.9372 10.1639 13.9376C8.18205 13.9376 6.57574 15.5497 6.57574 17.5385C6.57574 18.9447 7.37867 20.1622 8.54963 20.7553Z" fill="black"/>
<path d="M18.0204 8.85961C19.6877 10.0553 21.7293 10.7588 23.9345 10.7588V7.40643C22.7036 7.14329 21.6139 6.49774 20.7946 5.59982C19.3921 4.72156 18.3817 3.27264 18.0854 1.57678H14.9938V18.5875C14.9868 20.5706 13.3832 22.1763 11.4056 22.1763C10.2402 22.1763 9.20489 21.6188 8.54921 20.7553C7.37834 20.1622 6.57541 18.9446 6.57541 17.5386C6.57541 15.55 8.18172 13.9377 10.1636 13.9377C10.5433 13.9377 10.9093 13.997 11.2526 14.1063V10.7173C6.99658 10.8055 3.57373 14.2954 3.57373 18.5876C3.57373 20.7302 4.4261 22.6725 5.8095 24.0917C7.05754 24.9327 8.55993 25.4232 10.1763 25.4232C14.5085 25.4232 18.0205 21.8987 18.0205 17.551V8.85961H18.0204Z" fill="black"/>
<path d="M23.9345 7.40646V6.5C22.8245 6.50169 21.7363 6.18972 20.7946 5.59977C21.6282 6.51575 22.726 7.14734 23.9345 7.40646ZM18.0854 1.57682C18.0572 1.41474 18.0355 1.2516 18.0204 1.08783V0.540039H13.7517V17.5509C13.7449 19.5337 12.1413 21.1395 10.1636 21.1395C9.5829 21.1395 9.03468 21.0012 8.54918 20.7554C9.20487 21.6189 10.2402 22.1763 11.4056 22.1763C13.383 22.1763 14.9869 20.5707 14.9938 18.5876V1.57682H18.0854ZM11.2527 10.7173V9.75232C10.8961 9.7034 10.5364 9.67885 10.1764 9.67902C5.84386 9.67893 2.33179 13.2035 2.33179 17.5509C2.33179 20.2765 3.71209 22.6786 5.80957 24.0916C4.42616 22.6725 3.5738 20.73 3.5738 18.5875C3.5738 14.2955 6.99656 10.8056 11.2527 10.7173Z" fill="black"/>
</svg>
