<?xml version="1.0" encoding="utf-8"?>
<!-- Generator: Adobe Illustrator 25.0.0, SVG Export Plug-In . SVG Version: 6.00 Build 0)  -->
<svg version="1.1" id="Layer_1" xmlns="http://www.w3.org/2000/svg" xmlns:xlink="http://www.w3.org/1999/xlink" x="0px" y="0px"
	 viewBox="0 0 71.7 34.7" style="enable-background:new 0 0 71.7 34.7;" xml:space="preserve">
<style type="text/css">
	.st0{clip-path:url(#SVGID_2_);}
	.st1{fill:#EE7427;}
	.st2{fill:#00A0DC;}
</style>
<g>
	<defs>
		<rect id="SVGID_1_" x="-13.3" y="-24.3" width="84.5" height="58.9"/>
	</defs>
	<clipPath id="SVGID_2_">
		<use xlink:href="#SVGID_1_"  style="overflow:visible;"/>
	</clipPath>
	<g class="st0">
		<path class="st1" d="M40.7,13.4v13.9c0,1.6-0.1,2.7-0.2,3.3c-0.1,0.6-0.4,1.3-0.9,2c-0.5,0.7-1.2,1.2-2,1.5
			c-0.8,0.3-1.8,0.5-2.9,0.5c-1.2,0-2.3-0.2-3.2-0.6c-0.9-0.4-1.6-0.9-2.1-1.6c-0.5-0.7-0.7-1.4-0.8-2.1c-0.1-0.7-0.1-2.3-0.1-4.6
			V13.4h5.3V29c0,0.9,0,1.5,0.1,1.7c0.1,0.3,0.3,0.4,0.6,0.4c0.3,0,0.6-0.1,0.7-0.4c0.1-0.3,0.1-0.9,0.1-2V13.4H40.7z M71.1,21.3
			h-5.2v-1.8c0-1.2,0-1.9-0.2-2.2c-0.1-0.3-0.3-0.4-0.7-0.4c-0.3,0-0.5,0.1-0.7,0.4c-0.1,0.3-0.2,0.9-0.2,1.9v9.7
			c0,0.9,0.1,1.5,0.2,1.8c0.1,0.3,0.3,0.4,0.7,0.4c0.4,0,0.6-0.2,0.8-0.5c0.1-0.3,0.2-1,0.2-1.9v-2.4H65v-3.1h6.1v10.9h-3.3
			l-0.5-1.5c-0.4,0.6-0.8,1.1-1.3,1.4c-0.5,0.3-1.2,0.5-1.9,0.5c-0.9,0-1.7-0.2-2.5-0.6c-0.8-0.4-1.4-1-1.7-1.6
			c-0.4-0.6-0.6-1.3-0.7-2C59,29.7,59,28.6,59,27.2v-6c0-1.9,0.1-3.4,0.3-4.2c0.2-0.9,0.8-1.7,1.8-2.4c1-0.7,2.3-1.1,3.8-1.1
			c1.5,0,2.8,0.3,3.8,1c1,0.6,1.7,1.4,2,2.3c0.3,0.9,0.5,2.1,0.5,3.8V21.3z M56.3,13.4v21.2h-4.8L48.7,25v9.6h-4.6V13.4h4.6l3.1,9.5
			v-9.5H56.3z"/>
		<path class="st2" d="M19.6,19.4c0.7-1.4,1.2-3.3-1.1-5.4l-0.2-0.2l0,0.2c-0.1,1.9-1.3,2.8-2,3.2c-0.5,0.3-1,0.5-1.3,0.6
			c-0.4,0.2-0.7,0.3-0.9,0.5c-0.8,0.6-1.3,1.5-1.3,2.1c0,0.2-0.1,0.4-0.1,0.6c-0.1,0.6-0.3,1.4,0.3,2l0.1,0.1l0.1-0.1
			c1-1.1,1.8-1.6,2.6-1.6h0c0.6,0,1.1,0.3,1.6,0.8c0.3,0.8,0.3,1.4-0.2,2.2c-0.6,1.1-1.9,1.7-3.7,1.7c-2.4-0.3-3.9-1.7-4.2-4.2
			c0.1-1.8,0.8-4,5.3-6.6c1-0.5,1.5-1.2,1.7-2.4c0.2-1.2-0.1-3-1.5-4.6l-0.1-0.1l-0.1,0.2c-0.4,1.3-1.3,2.3-2.5,3.1c0,0,0,0,0,0
			c0.2-0.2,0.3-0.4,0.4-0.6c0.1-0.1,0.2-0.3,0.2-0.3c1.3-1.4,2.2-5.2-2.3-10.2l-0.2-0.2l0,0.2c-0.3,2.4-1,4.5-2,6.3
			c-0.8,1.6-1.8,3-2.8,4.4c-2.3,3.4-4.5,6.6-4.7,11c-0.2,3.1,0.7,5.9,2.5,8c2,2.6,4.7,4,8.1,4.3c0.3,0,0.5,0,0.8,0
			c3.6,0,7.1-2.1,8.7-5.4C22.6,26,22.1,22.4,19.6,19.4z"/>
	</g>
</g>
</svg>
